<?xml version="1.0" encoding="utf-8"?>
<svg version="1.1" xmlns:xlink="http://www.w3.org/1999/xlink" width="14px" height="8px" xmlns="http://www.w3.org/2000/svg">
  <g transform="matrix(1 0 0 1 0 -3 )">
    <path d="M 0 3  L 14 3  L 14 11  L 0 11  L 0 3  " fill-rule="nonzero" fill="#cccccc" stroke="none" />
    <path d="M 1 4  L 13 4  L 13 10  L 1 10  L 1 4  " fill-rule="nonzero" fill="#ffffff" stroke="none" />
    <path d="M 7.88 5.4  C 7.544 5.4  7.28 5.136  7.28 4.8  C 7.28 4.464  7.544 4.2  7.88 4.2  C 8.216 4.2  8.48 4.464  8.48 4.8  C 8.48 5.136  8.216 5.4  7.88 5.4  " fill-rule="nonzero" fill="#cccccc" stroke="none" />
    <path d="M 1 10  L 1 6.7  L 4 5.2  L 8.2 7.94285714285714  L 10.6 6.1  L 13 7.94285714285714  L 13 10  L 1 10  " fill-rule="nonzero" fill="#169bd5" stroke="none" />
  </g>
</svg>