<?xml version="1.0" encoding="utf-8"?>
<svg version="1.1" xmlns:xlink="http://www.w3.org/1999/xlink" width="20px" height="20px" xmlns="http://www.w3.org/2000/svg">
  <g transform="matrix(1 0 0 1 -40 0 )">
    <path d="M 50 0  C 55.6 0  60 4.4  60 10  C 60 15.6  55.6 20  50 20  C 44.4 20  40 15.6  40 10  C 40 4.4  44.4 0  50 0  Z " fill-rule="nonzero" fill="#ffffff" stroke="none" />
    <path d="M 50 0.5  C 55.32 0.5  59.5 4.68  59.5 10  C 59.5 15.32  55.32 19.5  50 19.5  C 44.68 19.5  40.5 15.32  40.5 10  C 40.5 4.68  44.68 0.5  50 0.5  Z " stroke-width="1" stroke="#8c8c8c" fill="none" />
  </g>
</svg>