<?xml version="1.0" encoding="utf-8"?>
<svg version="1.1" xmlns:xlink="http://www.w3.org/1999/xlink" width="8px" height="14px" xmlns="http://www.w3.org/2000/svg">
  <g>
    <path d="M 0 0  L 8 0  L 8 14  L 0 14  L 0 0  " fill-rule="nonzero" fill="#cccccc" stroke="none" />
    <path d="M 1 1  L 7 1  L 7 13  L 1 13  L 1 1  " fill-rule="nonzero" fill="#ffffff" stroke="none" />
    <path d="M 4.76 3.3  C 4.424 3.3  4.16 3.036  4.16 2.7  C 4.16 2.364  4.424 2.1  4.76 2.1  C 5.096 2.1  5.36 2.364  5.36 2.7  C 5.36 3.036  5.096 3.3  4.76 3.3  " fill-rule="nonzero" fill="#cccccc" stroke="none" />
    <path d="M 1 13  L 1 6.4  L 2.5 3.4  L 4.6 5.8  L 5.8 5.2  L 7 5.8  L 7 13  L 1 13  " fill-rule="nonzero" fill="#169bd5" stroke="none" />
  </g>
</svg>