<?xml version="1.0" encoding="utf-8"?>
<svg version="1.1" xmlns:xlink="http://www.w3.org/1999/xlink" width="25px" height="25px" xmlns="http://www.w3.org/2000/svg">
  <g transform="matrix(1 0 0 1 -33 0 )">
    <path d="M 45.5 0  C 52.5 0  58 5.5  58 12.5  C 58 19.5  52.5 25  45.5 25  C 38.5 25  33 19.5  33 12.5  C 33 5.5  38.5 0  45.5 0  Z " fill-rule="nonzero" fill="#ffffff" stroke="none" />
    <path d="M 45.5 0.5  C 52.22 0.5  57.5 5.78  57.5 12.5  C 57.5 19.22  52.22 24.5  45.5 24.5  C 38.78 24.5  33.5 19.22  33.5 12.5  C 33.5 5.78  38.78 0.5  45.5 0.5  Z " stroke-width="1" stroke="#169bd5" fill="none" />
  </g>
</svg>