<?xml version="1.0" encoding="utf-8"?>
<svg version="1.1" xmlns:xlink="http://www.w3.org/1999/xlink" width="14px" height="14px" viewBox="94 103  14 14" xmlns="http://www.w3.org/2000/svg">
  <path d="M 94.5 105  A 1.5 1.5 0 0 1 96 103.5 L 106 103.5  A 1.5 1.5 0 0 1 107.5 105 L 107.5 115  A 1.5 1.5 0 0 1 106 116.5 L 96 116.5  A 1.5 1.5 0 0 1 94.5 115 L 94.5 105  Z " fill-rule="nonzero" fill="#ffffff" stroke="none" />
  <path d="M 94.5 105  A 1.5 1.5 0 0 1 96 103.5 L 106 103.5  A 1.5 1.5 0 0 1 107.5 105 L 107.5 115  A 1.5 1.5 0 0 1 106 116.5 L 96 116.5  A 1.5 1.5 0 0 1 94.5 115 L 94.5 105  Z " stroke-width="1" stroke="#797979" fill="none" />
</svg>