<?xml version="1.0" encoding="utf-8"?>
<svg version="1.1" xmlns:xlink="http://www.w3.org/1999/xlink" width="14px" height="14px" viewBox="158 177  14 14" xmlns="http://www.w3.org/2000/svg">
  <path d="M 158.5 179  A 1.5 1.5 0 0 1 160 177.5 L 170 177.5  A 1.5 1.5 0 0 1 171.5 179 L 171.5 189  A 1.5 1.5 0 0 1 170 190.5 L 160 190.5  A 1.5 1.5 0 0 1 158.5 189 L 158.5 179  Z " fill-rule="nonzero" fill="#f0f0f0" stroke="none" />
  <path d="M 158.5 179  A 1.5 1.5 0 0 1 160 177.5 L 170 177.5  A 1.5 1.5 0 0 1 171.5 179 L 171.5 189  A 1.5 1.5 0 0 1 170 190.5 L 160 190.5  A 1.5 1.5 0 0 1 158.5 189 L 158.5 179  Z " stroke-width="1" stroke="#797979" fill="none" />
</svg>