<?xml version="1.0" encoding="utf-8"?>
<svg version="1.1" xmlns:xlink="http://www.w3.org/1999/xlink" width="14px" height="14px" viewBox="158 334  14 14" xmlns="http://www.w3.org/2000/svg">
  <path d="M 158.5 336  A 1.5 1.5 0 0 1 160 334.5 L 170 334.5  A 1.5 1.5 0 0 1 171.5 336 L 171.5 346  A 1.5 1.5 0 0 1 170 347.5 L 160 347.5  A 1.5 1.5 0 0 1 158.5 346 L 158.5 336  Z " fill-rule="nonzero" fill="#f0f0f0" stroke="none" />
  <path d="M 158.5 336  A 1.5 1.5 0 0 1 160 334.5 L 170 334.5  A 1.5 1.5 0 0 1 171.5 336 L 171.5 346  A 1.5 1.5 0 0 1 170 347.5 L 160 347.5  A 1.5 1.5 0 0 1 158.5 346 L 158.5 336  Z " stroke-width="1" stroke="#797979" fill="none" />
</svg>