<?xml version="1.0" encoding="utf-8"?>
<svg version="1.1" xmlns:xlink="http://www.w3.org/1999/xlink" width="8px" height="12px" xmlns="http://www.w3.org/2000/svg">
  <g transform="matrix(1 0 0 1 -898 -37 )">
    <path d="M 5.4140625 5.4140625  C 5.8046875 5.0234375  6 4.55208333333333  6 4  C 6 3.44791666666667  5.8046875 2.9765625  5.4140625 2.5859375  C 5.0234375 2.1953125  4.55208333333333 2  4 2  C 3.44791666666667 2  2.9765625 2.1953125  2.5859375 2.5859375  C 2.1953125 2.9765625  2 3.44791666666667  2 4  C 2 4.55208333333333  2.1953125 5.0234375  2.5859375 5.4140625  C 2.9765625 5.8046875  3.44791666666667 6  4 6  C 4.55208333333333 6  5.0234375 5.8046875  5.4140625 5.4140625  Z M 6.828125 1.171875  C 7.609375 1.953125  8 2.89583333333333  8 4  C 8 4.56770833333333  7.9140625 5.03385416666667  7.7421875 5.3984375  L 4.8984375 11.4453125  C 4.81510416666667 11.6171875  4.69140625 11.7526041666667  4.52734375 11.8515625  C 4.36328125 11.9505208333333  4.1875 12  4 12  C 3.8125 12  3.63671875 11.9505208333333  3.47265625 11.8515625  C 3.30859375 11.7526041666667  3.1875 11.6171875  3.109375 11.4453125  L 0.2578125 5.3984375  C 0.0859375 5.03385416666667  0 4.56770833333333  0 4  C 0 2.89583333333333  0.390625 1.953125  1.171875 1.171875  C 1.953125 0.390625  2.89583333333333 0  4 0  C 5.10416666666667 0  6.046875 0.390625  6.828125 1.171875  Z " fill-rule="nonzero" fill="#00a9f2" stroke="none" transform="matrix(1 0 0 1 898 37 )" />
  </g>
</svg>