<?xml version="1.0" encoding="utf-8"?>
<svg version="1.1" xmlns:xlink="http://www.w3.org/1999/xlink" width="14px" height="14px" viewBox="158 491  14 14" xmlns="http://www.w3.org/2000/svg">
  <path d="M 158.5 493  A 1.5 1.5 0 0 1 160 491.5 L 170 491.5  A 1.5 1.5 0 0 1 171.5 493 L 171.5 503  A 1.5 1.5 0 0 1 170 504.5 L 160 504.5  A 1.5 1.5 0 0 1 158.5 503 L 158.5 493  Z " fill-rule="nonzero" fill="#f0f0f0" stroke="none" />
  <path d="M 158.5 493  A 1.5 1.5 0 0 1 160 491.5 L 170 491.5  A 1.5 1.5 0 0 1 171.5 493 L 171.5 503  A 1.5 1.5 0 0 1 170 504.5 L 160 504.5  A 1.5 1.5 0 0 1 158.5 503 L 158.5 493  Z " stroke-width="1" stroke="#797979" fill="none" />
  <path d="M 161.5 498.5  L 164.5 501.5  " stroke-width="3" stroke="#797979" fill="none" />
  <path d="M 164.5 501.5  L 169.5 494.5  " stroke-width="3" stroke="#797979" fill="none" />
</svg>