<?xml version="1.0" encoding="utf-8"?>
<svg version="1.1" xmlns:xlink="http://www.w3.org/1999/xlink" width="14px" height="14px" viewBox="158 648  14 14" xmlns="http://www.w3.org/2000/svg">
  <path d="M 158.5 650  A 1.5 1.5 0 0 1 160 648.5 L 170 648.5  A 1.5 1.5 0 0 1 171.5 650 L 171.5 660  A 1.5 1.5 0 0 1 170 661.5 L 160 661.5  A 1.5 1.5 0 0 1 158.5 660 L 158.5 650  Z " fill-rule="nonzero" fill="#ffffff" stroke="none" />
  <path d="M 158.5 650  A 1.5 1.5 0 0 1 160 648.5 L 170 648.5  A 1.5 1.5 0 0 1 171.5 650 L 171.5 660  A 1.5 1.5 0 0 1 170 661.5 L 160 661.5  A 1.5 1.5 0 0 1 158.5 660 L 158.5 650  Z " stroke-width="1" stroke="#797979" fill="none" />
  <path d="M 161.5 655.5  L 164.5 658.5  " stroke-width="3" stroke="#797979" fill="none" />
  <path d="M 164.5 658.5  L 169.5 651.5  " stroke-width="3" stroke="#797979" fill="none" />
</svg>