<?xml version="1.0" encoding="utf-8"?>
<svg version="1.1" xmlns:xlink="http://www.w3.org/1999/xlink" width="14px" height="14px" viewBox="158 387  14 14" xmlns="http://www.w3.org/2000/svg">
  <path d="M 158.5 389  A 1.5 1.5 0 0 1 160 387.5 L 170 387.5  A 1.5 1.5 0 0 1 171.5 389 L 171.5 399  A 1.5 1.5 0 0 1 170 400.5 L 160 400.5  A 1.5 1.5 0 0 1 158.5 399 L 158.5 389  Z " fill-rule="nonzero" fill="#ffffff" stroke="none" />
  <path d="M 158.5 389  A 1.5 1.5 0 0 1 160 387.5 L 170 387.5  A 1.5 1.5 0 0 1 171.5 389 L 171.5 399  A 1.5 1.5 0 0 1 170 400.5 L 160 400.5  A 1.5 1.5 0 0 1 158.5 399 L 158.5 389  Z " stroke-width="1" stroke="#797979" fill="none" />
</svg>