<?xml version="1.0" encoding="utf-8"?>
<svg version="1.1" xmlns:xlink="http://www.w3.org/1999/xlink" width="14px" height="14px" viewBox="158 543  14 14" xmlns="http://www.w3.org/2000/svg">
  <path d="M 158.5 545  A 1.5 1.5 0 0 1 160 543.5 L 170 543.5  A 1.5 1.5 0 0 1 171.5 545 L 171.5 555  A 1.5 1.5 0 0 1 170 556.5 L 160 556.5  A 1.5 1.5 0 0 1 158.5 555 L 158.5 545  Z " fill-rule="nonzero" fill="#f0f0f0" stroke="none" />
  <path d="M 158.5 545  A 1.5 1.5 0 0 1 160 543.5 L 170 543.5  A 1.5 1.5 0 0 1 171.5 545 L 171.5 555  A 1.5 1.5 0 0 1 170 556.5 L 160 556.5  A 1.5 1.5 0 0 1 158.5 555 L 158.5 545  Z " stroke-width="1" stroke="#797979" fill="none" />
  <path d="M 161.5 550.5  L 164.5 553.5  " stroke-width="3" stroke="#797979" fill="none" />
  <path d="M 164.5 553.5  L 169.5 546.5  " stroke-width="3" stroke="#797979" fill="none" />
</svg>