<?xml version="1.0" encoding="utf-8"?>
<svg version="1.1" xmlns:xlink="http://www.w3.org/1999/xlink" width="14px" height="14px" viewBox="158 439  14 14" xmlns="http://www.w3.org/2000/svg">
  <path d="M 158.5 441  A 1.5 1.5 0 0 1 160 439.5 L 170 439.5  A 1.5 1.5 0 0 1 171.5 441 L 171.5 451  A 1.5 1.5 0 0 1 170 452.5 L 160 452.5  A 1.5 1.5 0 0 1 158.5 451 L 158.5 441  Z " fill-rule="nonzero" fill="#f0f0f0" stroke="none" />
  <path d="M 158.5 441  A 1.5 1.5 0 0 1 160 439.5 L 170 439.5  A 1.5 1.5 0 0 1 171.5 441 L 171.5 451  A 1.5 1.5 0 0 1 170 452.5 L 160 452.5  A 1.5 1.5 0 0 1 158.5 451 L 158.5 441  Z " stroke-width="1" stroke="#797979" fill="none" />
  <path d="M 161.5 446.5  L 164.5 449.5  " stroke-width="3" stroke="#797979" fill="none" />
  <path d="M 164.5 449.5  L 169.5 442.5  " stroke-width="3" stroke="#797979" fill="none" />
</svg>