<?xml version="1.0" encoding="utf-8"?>
<svg version="1.1" xmlns:xlink="http://www.w3.org/1999/xlink" width="14px" height="14px" viewBox="94 241  14 14" xmlns="http://www.w3.org/2000/svg">
  <path d="M 94.5 243  A 1.5 1.5 0 0 1 96 241.5 L 106 241.5  A 1.5 1.5 0 0 1 107.5 243 L 107.5 253  A 1.5 1.5 0 0 1 106 254.5 L 96 254.5  A 1.5 1.5 0 0 1 94.5 253 L 94.5 243  Z " fill-rule="nonzero" fill="#f0f0f0" stroke="none" />
  <path d="M 94.5 243  A 1.5 1.5 0 0 1 96 241.5 L 106 241.5  A 1.5 1.5 0 0 1 107.5 243 L 107.5 253  A 1.5 1.5 0 0 1 106 254.5 L 96 254.5  A 1.5 1.5 0 0 1 94.5 253 L 94.5 243  Z " stroke-width="1" stroke="#797979" fill="none" />
  <path d="M 97.5 248.5  L 100.5 251.5  " stroke-width="3" stroke="#797979" fill="none" />
  <path d="M 100.5 251.5  L 105.5 244.5  " stroke-width="3" stroke="#797979" fill="none" />
</svg>