<?xml version="1.0" encoding="utf-8"?>
<svg version="1.1" xmlns:xlink="http://www.w3.org/1999/xlink" width="14px" height="14px" viewBox="72 224  14 14" xmlns="http://www.w3.org/2000/svg">
  <path d="M 72.5 226  A 1.5 1.5 0 0 1 74 224.5 L 84 224.5  A 1.5 1.5 0 0 1 85.5 226 L 85.5 236  A 1.5 1.5 0 0 1 84 237.5 L 74 237.5  A 1.5 1.5 0 0 1 72.5 236 L 72.5 226  Z " fill-rule="nonzero" fill="#f0f0f0" stroke="none" />
  <path d="M 72.5 226  A 1.5 1.5 0 0 1 74 224.5 L 84 224.5  A 1.5 1.5 0 0 1 85.5 226 L 85.5 236  A 1.5 1.5 0 0 1 84 237.5 L 74 237.5  A 1.5 1.5 0 0 1 72.5 236 L 72.5 226  Z " stroke-width="1" stroke="#797979" fill="none" />
  <path d="M 75.5 231.5  L 78.5 234.5  " stroke-width="3" stroke="#797979" fill="none" />
  <path d="M 78.5 234.5  L 83.5 227.5  " stroke-width="3" stroke="#797979" fill="none" />
</svg>