<?xml version="1.0" encoding="utf-8"?>
<svg version="1.1" xmlns:xlink="http://www.w3.org/1999/xlink" width="14px" height="14px" viewBox="165 125  14 14" xmlns="http://www.w3.org/2000/svg">
  <path d="M 165.5 127  A 1.5 1.5 0 0 1 167 125.5 L 177 125.5  A 1.5 1.5 0 0 1 178.5 127 L 178.5 137  A 1.5 1.5 0 0 1 177 138.5 L 167 138.5  A 1.5 1.5 0 0 1 165.5 137 L 165.5 127  Z " fill-rule="nonzero" fill="#ffffff" stroke="none" />
  <path d="M 165.5 127  A 1.5 1.5 0 0 1 167 125.5 L 177 125.5  A 1.5 1.5 0 0 1 178.5 127 L 178.5 137  A 1.5 1.5 0 0 1 177 138.5 L 167 138.5  A 1.5 1.5 0 0 1 165.5 137 L 165.5 127  Z " stroke-width="1" stroke="#797979" fill="none" />
</svg>