<?xml version="1.0" encoding="utf-8"?>
<svg version="1.1" xmlns:xlink="http://www.w3.org/1999/xlink" width="14px" height="14px" viewBox="165 177  14 14" xmlns="http://www.w3.org/2000/svg">
  <path d="M 165.5 179  A 1.5 1.5 0 0 1 167 177.5 L 177 177.5  A 1.5 1.5 0 0 1 178.5 179 L 178.5 189  A 1.5 1.5 0 0 1 177 190.5 L 167 190.5  A 1.5 1.5 0 0 1 165.5 189 L 165.5 179  Z " fill-rule="nonzero" fill="#ffffff" stroke="none" />
  <path d="M 165.5 179  A 1.5 1.5 0 0 1 167 177.5 L 177 177.5  A 1.5 1.5 0 0 1 178.5 179 L 178.5 189  A 1.5 1.5 0 0 1 177 190.5 L 167 190.5  A 1.5 1.5 0 0 1 165.5 189 L 165.5 179  Z " stroke-width="1" stroke="#797979" fill="none" />
</svg>