<?xml version="1.0" encoding="utf-8"?>
<svg version="1.1" xmlns:xlink="http://www.w3.org/1999/xlink" width="14px" height="14px" viewBox="162 346  14 14" xmlns="http://www.w3.org/2000/svg">
  <path d="M 162.5 348  A 1.5 1.5 0 0 1 164 346.5 L 174 346.5  A 1.5 1.5 0 0 1 175.5 348 L 175.5 358  A 1.5 1.5 0 0 1 174 359.5 L 164 359.5  A 1.5 1.5 0 0 1 162.5 358 L 162.5 348  Z " fill-rule="nonzero" fill="#f0f0f0" stroke="none" />
  <path d="M 162.5 348  A 1.5 1.5 0 0 1 164 346.5 L 174 346.5  A 1.5 1.5 0 0 1 175.5 348 L 175.5 358  A 1.5 1.5 0 0 1 174 359.5 L 164 359.5  A 1.5 1.5 0 0 1 162.5 358 L 162.5 348  Z " stroke-width="1" stroke="#797979" fill="none" />
</svg>