<?xml version="1.0" encoding="utf-8"?>
<svg version="1.1" xmlns:xlink="http://www.w3.org/1999/xlink" width="14px" height="14px" viewBox="165 237  14 14" xmlns="http://www.w3.org/2000/svg">
  <path d="M 165.5 239  A 1.5 1.5 0 0 1 167 237.5 L 177 237.5  A 1.5 1.5 0 0 1 178.5 239 L 178.5 249  A 1.5 1.5 0 0 1 177 250.5 L 167 250.5  A 1.5 1.5 0 0 1 165.5 249 L 165.5 239  Z " fill-rule="nonzero" fill="#ffffff" stroke="none" />
  <path d="M 165.5 239  A 1.5 1.5 0 0 1 167 237.5 L 177 237.5  A 1.5 1.5 0 0 1 178.5 239 L 178.5 249  A 1.5 1.5 0 0 1 177 250.5 L 167 250.5  A 1.5 1.5 0 0 1 165.5 249 L 165.5 239  Z " stroke-width="1" stroke="#797979" fill="none" />
  <path d="M 168.5 244.5  L 171.5 247.5  " stroke-width="3" stroke="#797979" fill="none" />
  <path d="M 171.5 247.5  L 176.5 240.5  " stroke-width="3" stroke="#797979" fill="none" />
</svg>