<?xml version="1.0" encoding="utf-8"?>
<svg version="1.1" xmlns:xlink="http://www.w3.org/1999/xlink" width="14px" height="14px" viewBox="162 292  14 14" xmlns="http://www.w3.org/2000/svg">
  <path d="M 162.5 294  A 1.5 1.5 0 0 1 164 292.5 L 174 292.5  A 1.5 1.5 0 0 1 175.5 294 L 175.5 304  A 1.5 1.5 0 0 1 174 305.5 L 164 305.5  A 1.5 1.5 0 0 1 162.5 304 L 162.5 294  Z " fill-rule="nonzero" fill="#ffffff" stroke="none" />
  <path d="M 162.5 294  A 1.5 1.5 0 0 1 164 292.5 L 174 292.5  A 1.5 1.5 0 0 1 175.5 294 L 175.5 304  A 1.5 1.5 0 0 1 174 305.5 L 164 305.5  A 1.5 1.5 0 0 1 162.5 304 L 162.5 294  Z " stroke-width="1" stroke="#797979" fill="none" />
  <path d="M 165.5 299.5  L 168.5 302.5  " stroke-width="3" stroke="#797979" fill="none" />
  <path d="M 168.5 302.5  L 173.5 295.5  " stroke-width="3" stroke="#797979" fill="none" />
</svg>