<?xml version="1.0" encoding="utf-8"?>
<svg version="1.1" xmlns:xlink="http://www.w3.org/1999/xlink" width="25px" height="25px" xmlns="http://www.w3.org/2000/svg">
  <g transform="matrix(1 0 0 1 -30 0 )">
    <path d="M 42.5 0  C 49.5 0  55 5.5  55 12.5  C 55 19.5  49.5 25  42.5 25  C 35.5 25  30 19.5  30 12.5  C 30 5.5  35.5 0  42.5 0  Z " fill-rule="nonzero" fill="#ffffff" stroke="none" />
    <path d="M 42.5 0.5  C 49.22 0.5  54.5 5.78  54.5 12.5  C 54.5 19.22  49.22 24.5  42.5 24.5  C 35.78 24.5  30.5 19.22  30.5 12.5  C 30.5 5.78  35.78 0.5  42.5 0.5  Z " stroke-width="1" stroke="#169bd5" fill="none" />
  </g>
</svg>