<?xml version="1.0" encoding="utf-8"?>
<svg version="1.1" xmlns:xlink="http://www.w3.org/1999/xlink" width="7px" height="12px" xmlns="http://www.w3.org/2000/svg">
  <g transform="matrix(1 0 0 1 -155 -18 )">
    <path d="M 4.7373046875 5.4140625  C 5.0791015625 5.0234375  5.25 4.55208333333333  5.25 4  C 5.25 3.44791666666667  5.0791015625 2.9765625  4.7373046875 2.5859375  C 4.3955078125 2.1953125  3.98307291666667 2  3.5 2  C 3.01692708333333 2  2.6044921875 2.1953125  2.2626953125 2.5859375  C 1.9208984375 2.9765625  1.75 3.44791666666667  1.75 4  C 1.75 4.55208333333333  1.9208984375 5.0234375  2.2626953125 5.4140625  C 2.6044921875 5.8046875  3.01692708333333 6  3.5 6  C 3.98307291666667 6  4.3955078125 5.8046875  4.7373046875 5.4140625  Z M 5.974609375 1.171875  C 6.658203125 1.953125  7 2.89583333333333  7 4  C 7 4.56770833333333  6.9248046875 5.03385416666667  6.7744140625 5.3984375  L 4.2861328125 11.4453125  C 4.21321614583333 11.6171875  4.10498046875 11.7526041666667  3.96142578125 11.8515625  C 3.81787109375 11.9505208333333  3.6640625 12  3.5 12  C 3.3359375 12  3.18212890625 11.9505208333333  3.03857421875 11.8515625  C 2.89501953125 11.7526041666667  2.7890625 11.6171875  2.720703125 11.4453125  L 0.2255859375 5.3984375  C 0.0751953125 5.03385416666667  0 4.56770833333333  0 4  C 0 2.89583333333333  0.341796875 1.953125  1.025390625 1.171875  C 1.708984375 0.390625  2.53385416666667 0  3.5 0  C 4.46614583333333 0  5.291015625 0.390625  5.974609375 1.171875  Z " fill-rule="nonzero" fill="#1890ff" stroke="none" transform="matrix(1 0 0 1 155 18 )" />
  </g>
</svg>