<?xml version="1.0" encoding="utf-8"?>
<svg version="1.1" xmlns:xlink="http://www.w3.org/1999/xlink" width="12px" height="12px" viewBox="107 119.5  12 12" xmlns="http://www.w3.org/2000/svg">
  <path d="M 113 119.5  C 116.36 119.5  119 122.14  119 125.5  C 119 128.86  116.36 131.5  113 131.5  C 109.64 131.5  107 128.86  107 125.5  C 107 122.14  109.64 119.5  113 119.5  Z " fill-rule="nonzero" fill="#ffffff" stroke="none" />
  <path d="M 113 120  C 116.08 120  118.5 122.42  118.5 125.5  C 118.5 128.58  116.08 131  113 131  C 109.92 131  107.5 128.58  107.5 125.5  C 107.5 122.42  109.92 120  113 120  Z " stroke-width="1" stroke="#797979" fill="none" />
  <path d="M 113 128.5  C 111.32 128.5  110 127.18  110 125.5  C 110 123.82  111.32 122.5  113 122.5  C 114.68 122.5  116 123.82  116 125.5  C 116 127.18  114.68 128.5  113 128.5  " fill-rule="nonzero" fill="#797979" stroke="none" />
</svg>