<?xml version="1.0" encoding="utf-8"?>
<svg version="1.1" xmlns:xlink="http://www.w3.org/1999/xlink" width="12px" height="12px" viewBox="347 33.5  12 12" xmlns="http://www.w3.org/2000/svg">
  <path d="M 353 33.5  C 356.36 33.5  359 36.14  359 39.5  C 359 42.86  356.36 45.5  353 45.5  C 349.64 45.5  347 42.86  347 39.5  C 347 36.14  349.64 33.5  353 33.5  Z " fill-rule="nonzero" fill="#f0f0f0" stroke="none" />
  <path d="M 353 34  C 356.08 34  358.5 36.42  358.5 39.5  C 358.5 42.58  356.08 45  353 45  C 349.92 45  347.5 42.58  347.5 39.5  C 347.5 36.42  349.92 34  353 34  Z " stroke-width="1" stroke="#797979" fill="none" />
  <path d="M 353 42.5  C 351.32 42.5  350 41.18  350 39.5  C 350 37.82  351.32 36.5  353 36.5  C 354.68 36.5  356 37.82  356 39.5  C 356 41.18  354.68 42.5  353 42.5  " fill-rule="nonzero" fill="#797979" stroke="none" />
</svg>