<?xml version="1.0" encoding="utf-8"?>
<svg version="1.1" xmlns:xlink="http://www.w3.org/1999/xlink" width="12px" height="12px" viewBox="66 46.5  12 12" xmlns="http://www.w3.org/2000/svg">
  <path d="M 72 46.5  C 75.36 46.5  78 49.14  78 52.5  C 78 55.86  75.36 58.5  72 58.5  C 68.64 58.5  66 55.86  66 52.5  C 66 49.14  68.64 46.5  72 46.5  Z " fill-rule="nonzero" fill="#f0f0f0" stroke="none" />
  <path d="M 72 47  C 75.08 47  77.5 49.42  77.5 52.5  C 77.5 55.58  75.08 58  72 58  C 68.92 58  66.5 55.58  66.5 52.5  C 66.5 49.42  68.92 47  72 47  Z " stroke-width="1" stroke="#797979" fill="none" />
  <path d="M 72 55.5  C 70.32 55.5  69 54.18  69 52.5  C 69 50.82  70.32 49.5  72 49.5  C 73.68 49.5  75 50.82  75 52.5  C 75 54.18  73.68 55.5  72 55.5  " fill-rule="nonzero" fill="#797979" stroke="none" />
</svg>