<?xml version="1.0" encoding="utf-8"?>
<svg version="1.1" xmlns:xlink="http://www.w3.org/1999/xlink" width="12px" height="12px" viewBox="96 46.5  12 12" xmlns="http://www.w3.org/2000/svg">
  <path d="M 102 46.5  C 105.36 46.5  108 49.14  108 52.5  C 108 55.86  105.36 58.5  102 58.5  C 98.64 58.5  96 55.86  96 52.5  C 96 49.14  98.64 46.5  102 46.5  Z " fill-rule="nonzero" fill="#ffffff" stroke="none" />
  <path d="M 102 47  C 105.08 47  107.5 49.42  107.5 52.5  C 107.5 55.58  105.08 58  102 58  C 98.92 58  96.5 55.58  96.5 52.5  C 96.5 49.42  98.92 47  102 47  Z " stroke-width="1" stroke="#797979" fill="none" />
  <path d="M 102 55.5  C 100.32 55.5  99 54.18  99 52.5  C 99 50.82  100.32 49.5  102 49.5  C 103.68 49.5  105 50.82  105 52.5  C 105 54.18  103.68 55.5  102 55.5  " fill-rule="nonzero" fill="#797979" stroke="none" />
</svg>