<?xml version="1.0" encoding="utf-8"?>
<svg version="1.1" xmlns:xlink="http://www.w3.org/1999/xlink" width="12px" height="12px" viewBox="68 75.5  12 12" xmlns="http://www.w3.org/2000/svg">
  <path d="M 74 75.5  C 77.36 75.5  80 78.14  80 81.5  C 80 84.86  77.36 87.5  74 87.5  C 70.64 87.5  68 84.86  68 81.5  C 68 78.14  70.64 75.5  74 75.5  Z " fill-rule="nonzero" fill="#f0f0f0" stroke="none" />
  <path d="M 74 76  C 77.08 76  79.5 78.42  79.5 81.5  C 79.5 84.58  77.08 87  74 87  C 70.92 87  68.5 84.58  68.5 81.5  C 68.5 78.42  70.92 76  74 76  Z " stroke-width="1" stroke="#797979" fill="none" />
  <path d="M 74 84.5  C 72.32 84.5  71 83.18  71 81.5  C 71 79.82  72.32 78.5  74 78.5  C 75.68 78.5  77 79.82  77 81.5  C 77 83.18  75.68 84.5  74 84.5  " fill-rule="nonzero" fill="#797979" stroke="none" />
</svg>