<?xml version="1.0" encoding="utf-8"?>
<svg version="1.1" xmlns:xlink="http://www.w3.org/1999/xlink" width="12px" height="12px" viewBox="29 151.5  12 12" xmlns="http://www.w3.org/2000/svg">
  <path d="M 35 151.5  C 38.36 151.5  41 154.14  41 157.5  C 41 160.86  38.36 163.5  35 163.5  C 31.64 163.5  29 160.86  29 157.5  C 29 154.14  31.64 151.5  35 151.5  Z " fill-rule="nonzero" fill="#ffffff" stroke="none" />
  <path d="M 35 152  C 38.08 152  40.5 154.42  40.5 157.5  C 40.5 160.58  38.08 163  35 163  C 31.92 163  29.5 160.58  29.5 157.5  C 29.5 154.42  31.92 152  35 152  Z " stroke-width="1" stroke="#797979" fill="none" />
  <path d="M 35 160.5  C 33.32 160.5  32 159.18  32 157.5  C 32 155.82  33.32 154.5  35 154.5  C 36.68 154.5  38 155.82  38 157.5  C 38 159.18  36.68 160.5  35 160.5  " fill-rule="nonzero" fill="#797979" stroke="none" />
</svg>