<?xml version="1.0" encoding="utf-8"?>
<svg version="1.1" xmlns:xlink="http://www.w3.org/1999/xlink" width="12px" height="12px" viewBox="302 151.5  12 12" xmlns="http://www.w3.org/2000/svg">
  <path d="M 308 151.5  C 311.36 151.5  314 154.14  314 157.5  C 314 160.86  311.36 163.5  308 163.5  C 304.64 163.5  302 160.86  302 157.5  C 302 154.14  304.64 151.5  308 151.5  Z " fill-rule="nonzero" fill="#f0f0f0" stroke="none" />
  <path d="M 308 152  C 311.08 152  313.5 154.42  313.5 157.5  C 313.5 160.58  311.08 163  308 163  C 304.92 163  302.5 160.58  302.5 157.5  C 302.5 154.42  304.92 152  308 152  Z " stroke-width="1" stroke="#797979" fill="none" />
  <path d="M 308 160.5  C 306.32 160.5  305 159.18  305 157.5  C 305 155.82  306.32 154.5  308 154.5  C 309.68 154.5  311 155.82  311 157.5  C 311 159.18  309.68 160.5  308 160.5  " fill-rule="nonzero" fill="#797979" stroke="none" />
</svg>