<?xml version="1.0" encoding="utf-8"?>
<svg version="1.1" xmlns:xlink="http://www.w3.org/1999/xlink" width="12px" height="12px" viewBox="85 46.5  12 12" xmlns="http://www.w3.org/2000/svg">
  <path d="M 91 46.5  C 94.36 46.5  97 49.14  97 52.5  C 97 55.86  94.36 58.5  91 58.5  C 87.64 58.5  85 55.86  85 52.5  C 85 49.14  87.64 46.5  91 46.5  Z " fill-rule="nonzero" fill="#f0f0f0" stroke="none" />
  <path d="M 91 47  C 94.08 47  96.5 49.42  96.5 52.5  C 96.5 55.58  94.08 58  91 58  C 87.92 58  85.5 55.58  85.5 52.5  C 85.5 49.42  87.92 47  91 47  Z " stroke-width="1" stroke="#797979" fill="none" />
  <path d="M 91 55.5  C 89.32 55.5  88 54.18  88 52.5  C 88 50.82  89.32 49.5  91 49.5  C 92.68 49.5  94 50.82  94 52.5  C 94 54.18  92.68 55.5  91 55.5  " fill-rule="nonzero" fill="#797979" stroke="none" />
</svg>