<?xml version="1.0" encoding="utf-8"?>
<svg version="1.1" xmlns:xlink="http://www.w3.org/1999/xlink" width="12px" height="12px" viewBox="347 72.5  12 12" xmlns="http://www.w3.org/2000/svg">
  <path d="M 353 72.5  C 356.36 72.5  359 75.14  359 78.5  C 359 81.86  356.36 84.5  353 84.5  C 349.64 84.5  347 81.86  347 78.5  C 347 75.14  349.64 72.5  353 72.5  Z " fill-rule="nonzero" fill="#ffffff" stroke="none" />
  <path d="M 353 73  C 356.08 73  358.5 75.42  358.5 78.5  C 358.5 81.58  356.08 84  353 84  C 349.92 84  347.5 81.58  347.5 78.5  C 347.5 75.42  349.92 73  353 73  Z " stroke-width="1" stroke="#797979" fill="none" />
  <path d="M 353 81.5  C 351.32 81.5  350 80.18  350 78.5  C 350 76.82  351.32 75.5  353 75.5  C 354.68 75.5  356 76.82  356 78.5  C 356 80.18  354.68 81.5  353 81.5  " fill-rule="nonzero" fill="#797979" stroke="none" />
</svg>