<?xml version="1.0" encoding="utf-8"?>
<svg version="1.1" xmlns:xlink="http://www.w3.org/1999/xlink" width="12px" height="12px" viewBox="487 46.5  12 12" xmlns="http://www.w3.org/2000/svg">
  <path d="M 493 46.5  C 496.36 46.5  499 49.14  499 52.5  C 499 55.86  496.36 58.5  493 58.5  C 489.64 58.5  487 55.86  487 52.5  C 487 49.14  489.64 46.5  493 46.5  Z " fill-rule="nonzero" fill="#ffffff" stroke="none" />
  <path d="M 493 47  C 496.08 47  498.5 49.42  498.5 52.5  C 498.5 55.58  496.08 58  493 58  C 489.92 58  487.5 55.58  487.5 52.5  C 487.5 49.42  489.92 47  493 47  Z " stroke-width="1" stroke="#797979" fill="none" />
  <path d="M 493 55.5  C 491.32 55.5  490 54.18  490 52.5  C 490 50.82  491.32 49.5  493 49.5  C 494.68 49.5  496 50.82  496 52.5  C 496 54.18  494.68 55.5  493 55.5  " fill-rule="nonzero" fill="#797979" stroke="none" />
</svg>