<?xml version="1.0" encoding="utf-8"?>
<svg version="1.1" xmlns:xlink="http://www.w3.org/1999/xlink" width="12px" height="12px" viewBox="278 46.5  12 12" xmlns="http://www.w3.org/2000/svg">
  <path d="M 284 46.5  C 287.36 46.5  290 49.14  290 52.5  C 290 55.86  287.36 58.5  284 58.5  C 280.64 58.5  278 55.86  278 52.5  C 278 49.14  280.64 46.5  284 46.5  Z " fill-rule="nonzero" fill="#ffffff" stroke="none" />
  <path d="M 284 47  C 287.08 47  289.5 49.42  289.5 52.5  C 289.5 55.58  287.08 58  284 58  C 280.92 58  278.5 55.58  278.5 52.5  C 278.5 49.42  280.92 47  284 47  Z " stroke-width="1" stroke="#797979" fill="none" />
  <path d="M 284 55.5  C 282.32 55.5  281 54.18  281 52.5  C 281 50.82  282.32 49.5  284 49.5  C 285.68 49.5  287 50.82  287 52.5  C 287 54.18  285.68 55.5  284 55.5  " fill-rule="nonzero" fill="#797979" stroke="none" />
</svg>