<?xml version="1.0" encoding="utf-8"?>
<svg version="1.1" xmlns:xlink="http://www.w3.org/1999/xlink" width="12px" height="12px" viewBox="85 73.5  12 12" xmlns="http://www.w3.org/2000/svg">
  <path d="M 91 73.5  C 94.36 73.5  97 76.14  97 79.5  C 97 82.86  94.36 85.5  91 85.5  C 87.64 85.5  85 82.86  85 79.5  C 85 76.14  87.64 73.5  91 73.5  Z " fill-rule="nonzero" fill="#f0f0f0" stroke="none" />
  <path d="M 91 74  C 94.08 74  96.5 76.42  96.5 79.5  C 96.5 82.58  94.08 85  91 85  C 87.92 85  85.5 82.58  85.5 79.5  C 85.5 76.42  87.92 74  91 74  Z " stroke-width="1" stroke="#797979" fill="none" />
  <path d="M 91 82.5  C 89.32 82.5  88 81.18  88 79.5  C 88 77.82  89.32 76.5  91 76.5  C 92.68 76.5  94 77.82  94 79.5  C 94 81.18  92.68 82.5  91 82.5  " fill-rule="nonzero" fill="#797979" stroke="none" />
</svg>