<?xml version="1.0" encoding="utf-8"?>
<svg version="1.1" xmlns:xlink="http://www.w3.org/1999/xlink" width="12px" height="12px" viewBox="347 65.5  12 12" xmlns="http://www.w3.org/2000/svg">
  <path d="M 353 65.5  C 356.36 65.5  359 68.14  359 71.5  C 359 74.86  356.36 77.5  353 77.5  C 349.64 77.5  347 74.86  347 71.5  C 347 68.14  349.64 65.5  353 65.5  Z " fill-rule="nonzero" fill="#f0f0f0" stroke="none" />
  <path d="M 353 66  C 356.08 66  358.5 68.42  358.5 71.5  C 358.5 74.58  356.08 77  353 77  C 349.92 77  347.5 74.58  347.5 71.5  C 347.5 68.42  349.92 66  353 66  Z " stroke-width="1" stroke="#797979" fill="none" />
  <path d="M 353 74.5  C 351.32 74.5  350 73.18  350 71.5  C 350 69.82  351.32 68.5  353 68.5  C 354.68 68.5  356 69.82  356 71.5  C 356 73.18  354.68 74.5  353 74.5  " fill-rule="nonzero" fill="#797979" stroke="none" />
</svg>