<?xml version="1.0" encoding="utf-8"?>
<svg version="1.1" xmlns:xlink="http://www.w3.org/1999/xlink" width="12px" height="12px" viewBox="268 17.5  12 12" xmlns="http://www.w3.org/2000/svg">
  <path d="M 274 17.5  C 277.36 17.5  280 20.14  280 23.5  C 280 26.86  277.36 29.5  274 29.5  C 270.64 29.5  268 26.86  268 23.5  C 268 20.14  270.64 17.5  274 17.5  Z " fill-rule="nonzero" fill="#f0f0f0" stroke="none" />
  <path d="M 274 18  C 277.08 18  279.5 20.42  279.5 23.5  C 279.5 26.58  277.08 29  274 29  C 270.92 29  268.5 26.58  268.5 23.5  C 268.5 20.42  270.92 18  274 18  Z " stroke-width="1" stroke="#797979" fill="none" />
  <path d="M 274 26.5  C 272.32 26.5  271 25.18  271 23.5  C 271 21.82  272.32 20.5  274 20.5  C 275.68 20.5  277 21.82  277 23.5  C 277 25.18  275.68 26.5  274 26.5  " fill-rule="nonzero" fill="#797979" stroke="none" />
</svg>