<?xml version="1.0" encoding="utf-8"?>
<svg version="1.1" xmlns:xlink="http://www.w3.org/1999/xlink" width="12px" height="12px" viewBox="66 75.5  12 12" xmlns="http://www.w3.org/2000/svg">
  <path d="M 72 75.5  C 75.36 75.5  78 78.14  78 81.5  C 78 84.86  75.36 87.5  72 87.5  C 68.64 87.5  66 84.86  66 81.5  C 66 78.14  68.64 75.5  72 75.5  Z " fill-rule="nonzero" fill="#f0f0f0" stroke="none" />
  <path d="M 72 76  C 75.08 76  77.5 78.42  77.5 81.5  C 77.5 84.58  75.08 87  72 87  C 68.92 87  66.5 84.58  66.5 81.5  C 66.5 78.42  68.92 76  72 76  Z " stroke-width="1" stroke="#797979" fill="none" />
  <path d="M 72 84.5  C 70.32 84.5  69 83.18  69 81.5  C 69 79.82  70.32 78.5  72 78.5  C 73.68 78.5  75 79.82  75 81.5  C 75 83.18  73.68 84.5  72 84.5  " fill-rule="nonzero" fill="#797979" stroke="none" />
</svg>