<?xml version="1.0" encoding="utf-8"?>
<svg version="1.1" xmlns:xlink="http://www.w3.org/1999/xlink" width="12px" height="12px" viewBox="27 146.5  12 12" xmlns="http://www.w3.org/2000/svg">
  <path d="M 33 146.5  C 36.36 146.5  39 149.14  39 152.5  C 39 155.86  36.36 158.5  33 158.5  C 29.64 158.5  27 155.86  27 152.5  C 27 149.14  29.64 146.5  33 146.5  Z " fill-rule="nonzero" fill="#f0f0f0" stroke="none" />
  <path d="M 33 147  C 36.08 147  38.5 149.42  38.5 152.5  C 38.5 155.58  36.08 158  33 158  C 29.92 158  27.5 155.58  27.5 152.5  C 27.5 149.42  29.92 147  33 147  Z " stroke-width="1" stroke="#797979" fill="none" />
  <path d="M 33 155.5  C 31.32 155.5  30 154.18  30 152.5  C 30 150.82  31.32 149.5  33 149.5  C 34.68 149.5  36 150.82  36 152.5  C 36 154.18  34.68 155.5  33 155.5  " fill-rule="nonzero" fill="#797979" stroke="none" />
</svg>