<?xml version="1.0" encoding="utf-8"?>
<svg version="1.1" xmlns:xlink="http://www.w3.org/1999/xlink" width="12px" height="12px" viewBox="82 80.5  12 12" xmlns="http://www.w3.org/2000/svg">
  <path d="M 88 80.5  C 91.36 80.5  94 83.14  94 86.5  C 94 89.86  91.36 92.5  88 92.5  C 84.64 92.5  82 89.86  82 86.5  C 82 83.14  84.64 80.5  88 80.5  Z " fill-rule="nonzero" fill="#f0f0f0" stroke="none" />
  <path d="M 88 81  C 91.08 81  93.5 83.42  93.5 86.5  C 93.5 89.58  91.08 92  88 92  C 84.92 92  82.5 89.58  82.5 86.5  C 82.5 83.42  84.92 81  88 81  Z " stroke-width="1" stroke="#797979" fill="none" />
  <path d="M 88 89.5  C 86.32 89.5  85 88.18  85 86.5  C 85 84.82  86.32 83.5  88 83.5  C 89.68 83.5  91 84.82  91 86.5  C 91 88.18  89.68 89.5  88 89.5  " fill-rule="nonzero" fill="#797979" stroke="none" />
</svg>