<?xml version="1.0" encoding="utf-8"?>
<svg version="1.1" xmlns:xlink="http://www.w3.org/1999/xlink" width="12px" height="12px" viewBox="82 54.5  12 12" xmlns="http://www.w3.org/2000/svg">
  <path d="M 88 54.5  C 91.36 54.5  94 57.14  94 60.5  C 94 63.86  91.36 66.5  88 66.5  C 84.64 66.5  82 63.86  82 60.5  C 82 57.14  84.64 54.5  88 54.5  Z " fill-rule="nonzero" fill="#ffffff" stroke="none" />
  <path d="M 88 55  C 91.08 55  93.5 57.42  93.5 60.5  C 93.5 63.58  91.08 66  88 66  C 84.92 66  82.5 63.58  82.5 60.5  C 82.5 57.42  84.92 55  88 55  Z " stroke-width="1" stroke="#797979" fill="none" />
  <path d="M 88 63.5  C 86.32 63.5  85 62.18  85 60.5  C 85 58.82  86.32 57.5  88 57.5  C 89.68 57.5  91 58.82  91 60.5  C 91 62.18  89.68 63.5  88 63.5  " fill-rule="nonzero" fill="#797979" stroke="none" />
</svg>