<?xml version="1.0" encoding="utf-8"?>
<svg version="1.1" xmlns:xlink="http://www.w3.org/1999/xlink" width="12px" height="12px" viewBox="494 46.5  12 12" xmlns="http://www.w3.org/2000/svg">
  <path d="M 500 46.5  C 503.36 46.5  506 49.14  506 52.5  C 506 55.86  503.36 58.5  500 58.5  C 496.64 58.5  494 55.86  494 52.5  C 494 49.14  496.64 46.5  500 46.5  Z " fill-rule="nonzero" fill="#ffffff" stroke="none" />
  <path d="M 500 47  C 503.08 47  505.5 49.42  505.5 52.5  C 505.5 55.58  503.08 58  500 58  C 496.92 58  494.5 55.58  494.5 52.5  C 494.5 49.42  496.92 47  500 47  Z " stroke-width="1" stroke="#797979" fill="none" />
  <path d="M 500 55.5  C 498.32 55.5  497 54.18  497 52.5  C 497 50.82  498.32 49.5  500 49.5  C 501.68 49.5  503 50.82  503 52.5  C 503 54.18  501.68 55.5  500 55.5  " fill-rule="nonzero" fill="#797979" stroke="none" />
</svg>