<?xml version="1.0" encoding="utf-8"?>
<svg version="1.1" xmlns:xlink="http://www.w3.org/1999/xlink" width="12px" height="12px" viewBox="494 75.5  12 12" xmlns="http://www.w3.org/2000/svg">
  <path d="M 500 75.5  C 503.36 75.5  506 78.14  506 81.5  C 506 84.86  503.36 87.5  500 87.5  C 496.64 87.5  494 84.86  494 81.5  C 494 78.14  496.64 75.5  500 75.5  Z " fill-rule="nonzero" fill="#ffffff" stroke="none" />
  <path d="M 500 76  C 503.08 76  505.5 78.42  505.5 81.5  C 505.5 84.58  503.08 87  500 87  C 496.92 87  494.5 84.58  494.5 81.5  C 494.5 78.42  496.92 76  500 76  Z " stroke-width="1" stroke="#797979" fill="none" />
  <path d="M 500 84.5  C 498.32 84.5  497 83.18  497 81.5  C 497 79.82  498.32 78.5  500 78.5  C 501.68 78.5  503 79.82  503 81.5  C 503 83.18  501.68 84.5  500 84.5  " fill-rule="nonzero" fill="#797979" stroke="none" />
</svg>