<?xml version="1.0" encoding="utf-8"?>
<svg version="1.1" xmlns:xlink="http://www.w3.org/1999/xlink" width="12px" height="12px" viewBox="498 54.5  12 12" xmlns="http://www.w3.org/2000/svg">
  <path d="M 504 54.5  C 507.36 54.5  510 57.14  510 60.5  C 510 63.86  507.36 66.5  504 66.5  C 500.64 66.5  498 63.86  498 60.5  C 498 57.14  500.64 54.5  504 54.5  Z " fill-rule="nonzero" fill="#ffffff" stroke="none" />
  <path d="M 504 55  C 507.08 55  509.5 57.42  509.5 60.5  C 509.5 63.58  507.08 66  504 66  C 500.92 66  498.5 63.58  498.5 60.5  C 498.5 57.42  500.92 55  504 55  Z " stroke-width="1" stroke="#797979" fill="none" />
  <path d="M 504 63.5  C 502.32 63.5  501 62.18  501 60.5  C 501 58.82  502.32 57.5  504 57.5  C 505.68 57.5  507 58.82  507 60.5  C 507 62.18  505.68 63.5  504 63.5  " fill-rule="nonzero" fill="#797979" stroke="none" />
</svg>