<?xml version="1.0" encoding="utf-8"?>
<svg version="1.1" xmlns:xlink="http://www.w3.org/1999/xlink" width="12px" height="12px" viewBox="464 46.5  12 12" xmlns="http://www.w3.org/2000/svg">
  <path d="M 470 46.5  C 473.36 46.5  476 49.14  476 52.5  C 476 55.86  473.36 58.5  470 58.5  C 466.64 58.5  464 55.86  464 52.5  C 464 49.14  466.64 46.5  470 46.5  Z " fill-rule="nonzero" fill="#ffffff" stroke="none" />
  <path d="M 470 47  C 473.08 47  475.5 49.42  475.5 52.5  C 475.5 55.58  473.08 58  470 58  C 466.92 58  464.5 55.58  464.5 52.5  C 464.5 49.42  466.92 47  470 47  Z " stroke-width="1" stroke="#797979" fill="none" />
  <path d="M 470 55.5  C 468.32 55.5  467 54.18  467 52.5  C 467 50.82  468.32 49.5  470 49.5  C 471.68 49.5  473 50.82  473 52.5  C 473 54.18  471.68 55.5  470 55.5  " fill-rule="nonzero" fill="#797979" stroke="none" />
</svg>