<?xml version="1.0" encoding="utf-8"?>
<svg version="1.1" xmlns:xlink="http://www.w3.org/1999/xlink" width="12px" height="12px" viewBox="82 46.5  12 12" xmlns="http://www.w3.org/2000/svg">
  <path d="M 88 46.5  C 91.36 46.5  94 49.14  94 52.5  C 94 55.86  91.36 58.5  88 58.5  C 84.64 58.5  82 55.86  82 52.5  C 82 49.14  84.64 46.5  88 46.5  Z " fill-rule="nonzero" fill="#ffffff" stroke="none" />
  <path d="M 88 47  C 91.08 47  93.5 49.42  93.5 52.5  C 93.5 55.58  91.08 58  88 58  C 84.92 58  82.5 55.58  82.5 52.5  C 82.5 49.42  84.92 47  88 47  Z " stroke-width="1" stroke="#797979" fill="none" />
  <path d="M 88 55.5  C 86.32 55.5  85 54.18  85 52.5  C 85 50.82  86.32 49.5  88 49.5  C 89.68 49.5  91 50.82  91 52.5  C 91 54.18  89.68 55.5  88 55.5  " fill-rule="nonzero" fill="#797979" stroke="none" />
</svg>