<?xml version="1.0" encoding="utf-8"?>
<svg version="1.1" xmlns:xlink="http://www.w3.org/1999/xlink" width="12px" height="12px" viewBox="498 80.5  12 12" xmlns="http://www.w3.org/2000/svg">
  <path d="M 504 80.5  C 507.36 80.5  510 83.14  510 86.5  C 510 89.86  507.36 92.5  504 92.5  C 500.64 92.5  498 89.86  498 86.5  C 498 83.14  500.64 80.5  504 80.5  Z " fill-rule="nonzero" fill="#f0f0f0" stroke="none" />
  <path d="M 504 81  C 507.08 81  509.5 83.42  509.5 86.5  C 509.5 89.58  507.08 92  504 92  C 500.92 92  498.5 89.58  498.5 86.5  C 498.5 83.42  500.92 81  504 81  Z " stroke-width="1" stroke="#797979" fill="none" />
  <path d="M 504 89.5  C 502.32 89.5  501 88.18  501 86.5  C 501 84.82  502.32 83.5  504 83.5  C 505.68 83.5  507 84.82  507 86.5  C 507 88.18  505.68 89.5  504 89.5  " fill-rule="nonzero" fill="#797979" stroke="none" />
</svg>