<?xml version="1.0" encoding="utf-8"?>
<svg version="1.1" xmlns:xlink="http://www.w3.org/1999/xlink" width="12px" height="12px" viewBox="340 73.5  12 12" xmlns="http://www.w3.org/2000/svg">
  <path d="M 346 73.5  C 349.36 73.5  352 76.14  352 79.5  C 352 82.86  349.36 85.5  346 85.5  C 342.64 85.5  340 82.86  340 79.5  C 340 76.14  342.64 73.5  346 73.5  Z " fill-rule="nonzero" fill="#f0f0f0" stroke="none" />
  <path d="M 346 74  C 349.08 74  351.5 76.42  351.5 79.5  C 351.5 82.58  349.08 85  346 85  C 342.92 85  340.5 82.58  340.5 79.5  C 340.5 76.42  342.92 74  346 74  Z " stroke-width="1" stroke="#797979" fill="none" />
  <path d="M 346 82.5  C 344.32 82.5  343 81.18  343 79.5  C 343 77.82  344.32 76.5  346 76.5  C 347.68 76.5  349 77.82  349 79.5  C 349 81.18  347.68 82.5  346 82.5  " fill-rule="nonzero" fill="#797979" stroke="none" />
</svg>