<?xml version="1.0" encoding="utf-8"?>
<svg version="1.1" xmlns:xlink="http://www.w3.org/1999/xlink" width="12px" height="12px" viewBox="479 17.5  12 12" xmlns="http://www.w3.org/2000/svg">
  <path d="M 485 17.5  C 488.36 17.5  491 20.14  491 23.5  C 491 26.86  488.36 29.5  485 29.5  C 481.64 29.5  479 26.86  479 23.5  C 479 20.14  481.64 17.5  485 17.5  Z " fill-rule="nonzero" fill="#f0f0f0" stroke="none" />
  <path d="M 485 18  C 488.08 18  490.5 20.42  490.5 23.5  C 490.5 26.58  488.08 29  485 29  C 481.92 29  479.5 26.58  479.5 23.5  C 479.5 20.42  481.92 18  485 18  Z " stroke-width="1" stroke="#797979" fill="none" />
  <path d="M 485 26.5  C 483.32 26.5  482 25.18  482 23.5  C 482 21.82  483.32 20.5  485 20.5  C 486.68 20.5  488 21.82  488 23.5  C 488 25.18  486.68 26.5  485 26.5  " fill-rule="nonzero" fill="#797979" stroke="none" />
</svg>