<?xml version="1.0" encoding="utf-8"?>
<svg version="1.1" xmlns:xlink="http://www.w3.org/1999/xlink" width="12px" height="12px" viewBox="82 75.5  12 12" xmlns="http://www.w3.org/2000/svg">
  <path d="M 88 75.5  C 91.36 75.5  94 78.14  94 81.5  C 94 84.86  91.36 87.5  88 87.5  C 84.64 87.5  82 84.86  82 81.5  C 82 78.14  84.64 75.5  88 75.5  Z " fill-rule="nonzero" fill="#f0f0f0" stroke="none" />
  <path d="M 88 76  C 91.08 76  93.5 78.42  93.5 81.5  C 93.5 84.58  91.08 87  88 87  C 84.92 87  82.5 84.58  82.5 81.5  C 82.5 78.42  84.92 76  88 76  Z " stroke-width="1" stroke="#797979" fill="none" />
  <path d="M 88 84.5  C 86.32 84.5  85 83.18  85 81.5  C 85 79.82  86.32 78.5  88 78.5  C 89.68 78.5  91 79.82  91 81.5  C 91 83.18  89.68 84.5  88 84.5  " fill-rule="nonzero" fill="#797979" stroke="none" />
</svg>