<?xml version="1.0" encoding="utf-8"?>
<svg version="1.1" xmlns:xlink="http://www.w3.org/1999/xlink" width="12px" height="12px" viewBox="350 75.5  12 12" xmlns="http://www.w3.org/2000/svg">
  <path d="M 356 75.5  C 359.36 75.5  362 78.14  362 81.5  C 362 84.86  359.36 87.5  356 87.5  C 352.64 87.5  350 84.86  350 81.5  C 350 78.14  352.64 75.5  356 75.5  Z " fill-rule="nonzero" fill="#ffffff" stroke="none" />
  <path d="M 356 76  C 359.08 76  361.5 78.42  361.5 81.5  C 361.5 84.58  359.08 87  356 87  C 352.92 87  350.5 84.58  350.5 81.5  C 350.5 78.42  352.92 76  356 76  Z " stroke-width="1" stroke="#797979" fill="none" />
  <path d="M 356 84.5  C 354.32 84.5  353 83.18  353 81.5  C 353 79.82  354.32 78.5  356 78.5  C 357.68 78.5  359 79.82  359 81.5  C 359 83.18  357.68 84.5  356 84.5  " fill-rule="nonzero" fill="#797979" stroke="none" />
</svg>