<?xml version="1.0" encoding="utf-8"?>
<svg version="1.1" xmlns:xlink="http://www.w3.org/1999/xlink" width="12px" height="12px" viewBox="79 17.5  12 12" xmlns="http://www.w3.org/2000/svg">
  <path d="M 85 17.5  C 88.36 17.5  91 20.14  91 23.5  C 91 26.86  88.36 29.5  85 29.5  C 81.64 29.5  79 26.86  79 23.5  C 79 20.14  81.64 17.5  85 17.5  Z " fill-rule="nonzero" fill="#ffffff" stroke="none" />
  <path d="M 85 18  C 88.08 18  90.5 20.42  90.5 23.5  C 90.5 26.58  88.08 29  85 29  C 81.92 29  79.5 26.58  79.5 23.5  C 79.5 20.42  81.92 18  85 18  Z " stroke-width="1" stroke="#797979" fill="none" />
  <path d="M 85 26.5  C 83.32 26.5  82 25.18  82 23.5  C 82 21.82  83.32 20.5  85 20.5  C 86.68 20.5  88 21.82  88 23.5  C 88 25.18  86.68 26.5  85 26.5  " fill-rule="nonzero" fill="#797979" stroke="none" />
</svg>