<?xml version="1.0" encoding="utf-8"?>
<svg version="1.1" xmlns:xlink="http://www.w3.org/1999/xlink" width="12px" height="12px" viewBox="82 17.5  12 12" xmlns="http://www.w3.org/2000/svg">
  <path d="M 88 17.5  C 91.36 17.5  94 20.14  94 23.5  C 94 26.86  91.36 29.5  88 29.5  C 84.64 29.5  82 26.86  82 23.5  C 82 20.14  84.64 17.5  88 17.5  Z " fill-rule="nonzero" fill="#ffffff" stroke="none" />
  <path d="M 88 18  C 91.08 18  93.5 20.42  93.5 23.5  C 93.5 26.58  91.08 29  88 29  C 84.92 29  82.5 26.58  82.5 23.5  C 82.5 20.42  84.92 18  88 18  Z " stroke-width="1" stroke="#797979" fill="none" />
  <path d="M 88 26.5  C 86.32 26.5  85 25.18  85 23.5  C 85 21.82  86.32 20.5  88 20.5  C 89.68 20.5  91 21.82  91 23.5  C 91 25.18  89.68 26.5  88 26.5  " fill-rule="nonzero" fill="#797979" stroke="none" />
</svg>