<?xml version="1.0" encoding="utf-8"?>
<svg version="1.1" xmlns:xlink="http://www.w3.org/1999/xlink" width="12px" height="12px" viewBox="79 22.5  12 12" xmlns="http://www.w3.org/2000/svg">
  <path d="M 85 22.5  C 88.36 22.5  91 25.14  91 28.5  C 91 31.86  88.36 34.5  85 34.5  C 81.64 34.5  79 31.86  79 28.5  C 79 25.14  81.64 22.5  85 22.5  Z " fill-rule="nonzero" fill="#ffffff" stroke="none" />
  <path d="M 85 23  C 88.08 23  90.5 25.42  90.5 28.5  C 90.5 31.58  88.08 34  85 34  C 81.92 34  79.5 31.58  79.5 28.5  C 79.5 25.42  81.92 23  85 23  Z " stroke-width="1" stroke="#797979" fill="none" />
  <path d="M 85 31.5  C 83.32 31.5  82 30.18  82 28.5  C 82 26.82  83.32 25.5  85 25.5  C 86.68 25.5  88 26.82  88 28.5  C 88 30.18  86.68 31.5  85 31.5  " fill-rule="nonzero" fill="#797979" stroke="none" />
</svg>