<?xml version="1.0" encoding="utf-8"?>
<svg version="1.1" xmlns:xlink="http://www.w3.org/1999/xlink" width="12px" height="12px" viewBox="464 17.5  12 12" xmlns="http://www.w3.org/2000/svg">
  <path d="M 470 17.5  C 473.36 17.5  476 20.14  476 23.5  C 476 26.86  473.36 29.5  470 29.5  C 466.64 29.5  464 26.86  464 23.5  C 464 20.14  466.64 17.5  470 17.5  Z " fill-rule="nonzero" fill="#f0f0f0" stroke="none" />
  <path d="M 470 18  C 473.08 18  475.5 20.42  475.5 23.5  C 475.5 26.58  473.08 29  470 29  C 466.92 29  464.5 26.58  464.5 23.5  C 464.5 20.42  466.92 18  470 18  Z " stroke-width="1" stroke="#797979" fill="none" />
  <path d="M 470 26.5  C 468.32 26.5  467 25.18  467 23.5  C 467 21.82  468.32 20.5  470 20.5  C 471.68 20.5  473 21.82  473 23.5  C 473 25.18  471.68 26.5  470 26.5  " fill-rule="nonzero" fill="#797979" stroke="none" />
</svg>