<?xml version="1.0" encoding="utf-8"?>
<svg version="1.1" xmlns:xlink="http://www.w3.org/1999/xlink" width="12px" height="12px" viewBox="256 75.5  12 12" xmlns="http://www.w3.org/2000/svg">
  <path d="M 262 75.5  C 265.36 75.5  268 78.14  268 81.5  C 268 84.86  265.36 87.5  262 87.5  C 258.64 87.5  256 84.86  256 81.5  C 256 78.14  258.64 75.5  262 75.5  Z " fill-rule="nonzero" fill="#ffffff" stroke="none" />
  <path d="M 262 76  C 265.08 76  267.5 78.42  267.5 81.5  C 267.5 84.58  265.08 87  262 87  C 258.92 87  256.5 84.58  256.5 81.5  C 256.5 78.42  258.92 76  262 76  Z " stroke-width="1" stroke="#797979" fill="none" />
  <path d="M 262 84.5  C 260.32 84.5  259 83.18  259 81.5  C 259 79.82  260.32 78.5  262 78.5  C 263.68 78.5  265 79.82  265 81.5  C 265 83.18  263.68 84.5  262 84.5  " fill-rule="nonzero" fill="#797979" stroke="none" />
</svg>