<?xml version="1.0" encoding="utf-8"?>
<svg version="1.1" xmlns:xlink="http://www.w3.org/1999/xlink" width="12px" height="12px" viewBox="253 58.5  12 12" xmlns="http://www.w3.org/2000/svg">
  <path d="M 259 58.5  C 262.36 58.5  265 61.14  265 64.5  C 265 67.86  262.36 70.5  259 70.5  C 255.64 70.5  253 67.86  253 64.5  C 253 61.14  255.64 58.5  259 58.5  Z " fill-rule="nonzero" fill="#f0f0f0" stroke="none" />
  <path d="M 259 59  C 262.08 59  264.5 61.42  264.5 64.5  C 264.5 67.58  262.08 70  259 70  C 255.92 70  253.5 67.58  253.5 64.5  C 253.5 61.42  255.92 59  259 59  Z " stroke-width="1" stroke="#797979" fill="none" />
  <path d="M 259 67.5  C 257.32 67.5  256 66.18  256 64.5  C 256 62.82  257.32 61.5  259 61.5  C 260.68 61.5  262 62.82  262 64.5  C 262 66.18  260.68 67.5  259 67.5  " fill-rule="nonzero" fill="#797979" stroke="none" />
</svg>