<?xml version="1.0" encoding="utf-8"?>
<svg version="1.1" xmlns:xlink="http://www.w3.org/1999/xlink" width="12px" height="12px" viewBox="253 58  12 12" xmlns="http://www.w3.org/2000/svg">
  <path d="M 259 58  C 262.36 58  265 60.64  265 64  C 265 67.36  262.36 70  259 70  C 255.64 70  253 67.36  253 64  C 253 60.64  255.64 58  259 58  Z " fill-rule="nonzero" fill="#ffffff" stroke="none" />
  <path d="M 259 58.5  C 262.08 58.5  264.5 60.92  264.5 64  C 264.5 67.08  262.08 69.5  259 69.5  C 255.92 69.5  253.5 67.08  253.5 64  C 253.5 60.92  255.92 58.5  259 58.5  Z " stroke-width="1" stroke="#797979" fill="none" />
  <path d="M 259 67  C 257.32 67  256 65.68  256 64  C 256 62.32  257.32 61  259 61  C 260.68 61  262 62.32  262 64  C 262 65.68  260.68 67  259 67  " fill-rule="nonzero" fill="#797979" stroke="none" />
</svg>