<?xml version="1.0" encoding="utf-8"?>
<svg version="1.1" xmlns:xlink="http://www.w3.org/1999/xlink" width="12px" height="12px" viewBox="251 33  12 12" xmlns="http://www.w3.org/2000/svg">
  <path d="M 257 33  C 260.36 33  263 35.64  263 39  C 263 42.36  260.36 45  257 45  C 253.64 45  251 42.36  251 39  C 251 35.64  253.64 33  257 33  Z " fill-rule="nonzero" fill="#f0f0f0" stroke="none" />
  <path d="M 257 33.5  C 260.08 33.5  262.5 35.92  262.5 39  C 262.5 42.08  260.08 44.5  257 44.5  C 253.92 44.5  251.5 42.08  251.5 39  C 251.5 35.92  253.92 33.5  257 33.5  Z " stroke-width="1" stroke="#797979" fill="none" />
  <path d="M 257 42  C 255.32 42  254 40.68  254 39  C 254 37.32  255.32 36  257 36  C 258.68 36  260 37.32  260 39  C 260 40.68  258.68 42  257 42  " fill-rule="nonzero" fill="#797979" stroke="none" />
</svg>