<?xml version="1.0" encoding="utf-8"?>
<svg version="1.1" xmlns:xlink="http://www.w3.org/1999/xlink" width="12px" height="12px" viewBox="247 55.5  12 12" xmlns="http://www.w3.org/2000/svg">
  <path d="M 253 55.5  C 256.36 55.5  259 58.14  259 61.5  C 259 64.86  256.36 67.5  253 67.5  C 249.64 67.5  247 64.86  247 61.5  C 247 58.14  249.64 55.5  253 55.5  Z " fill-rule="nonzero" fill="#f0f0f0" stroke="none" />
  <path d="M 253 56  C 256.08 56  258.5 58.42  258.5 61.5  C 258.5 64.58  256.08 67  253 67  C 249.92 67  247.5 64.58  247.5 61.5  C 247.5 58.42  249.92 56  253 56  Z " stroke-width="1" stroke="#797979" fill="none" />
  <path d="M 253 64.5  C 251.32 64.5  250 63.18  250 61.5  C 250 59.82  251.32 58.5  253 58.5  C 254.68 58.5  256 59.82  256 61.5  C 256 63.18  254.68 64.5  253 64.5  " fill-rule="nonzero" fill="#797979" stroke="none" />
</svg>