<?xml version="1.0" encoding="utf-8"?>
<svg version="1.1" xmlns:xlink="http://www.w3.org/1999/xlink" width="12px" height="12px" viewBox="67 75.5  12 12" xmlns="http://www.w3.org/2000/svg">
  <path d="M 73 75.5  C 76.36 75.5  79 78.14  79 81.5  C 79 84.86  76.36 87.5  73 87.5  C 69.64 87.5  67 84.86  67 81.5  C 67 78.14  69.64 75.5  73 75.5  Z " fill-rule="nonzero" fill="#ffffff" stroke="none" />
  <path d="M 73 76  C 76.08 76  78.5 78.42  78.5 81.5  C 78.5 84.58  76.08 87  73 87  C 69.92 87  67.5 84.58  67.5 81.5  C 67.5 78.42  69.92 76  73 76  Z " stroke-width="1" stroke="#797979" fill="none" />
  <path d="M 73 84.5  C 71.32 84.5  70 83.18  70 81.5  C 70 79.82  71.32 78.5  73 78.5  C 74.68 78.5  76 79.82  76 81.5  C 76 83.18  74.68 84.5  73 84.5  " fill-rule="nonzero" fill="#797979" stroke="none" />
</svg>