<?xml version="1.0" encoding="utf-8"?>
<svg version="1.1" xmlns:xlink="http://www.w3.org/1999/xlink" width="12px" height="12px" viewBox="250 41.5  12 12" xmlns="http://www.w3.org/2000/svg">
  <path d="M 256 41.5  C 259.36 41.5  262 44.14  262 47.5  C 262 50.86  259.36 53.5  256 53.5  C 252.64 53.5  250 50.86  250 47.5  C 250 44.14  252.64 41.5  256 41.5  Z " fill-rule="nonzero" fill="#ffffff" stroke="none" />
  <path d="M 256 42  C 259.08 42  261.5 44.42  261.5 47.5  C 261.5 50.58  259.08 53  256 53  C 252.92 53  250.5 50.58  250.5 47.5  C 250.5 44.42  252.92 42  256 42  Z " stroke-width="1" stroke="#797979" fill="none" />
  <path d="M 256 50.5  C 254.32 50.5  253 49.18  253 47.5  C 253 45.82  254.32 44.5  256 44.5  C 257.68 44.5  259 45.82  259 47.5  C 259 49.18  257.68 50.5  256 50.5  " fill-rule="nonzero" fill="#797979" stroke="none" />
</svg>