<?xml version="1.0" encoding="utf-8"?>
<svg version="1.1" xmlns:xlink="http://www.w3.org/1999/xlink" width="12px" height="12px" viewBox="443 41.5  12 12" xmlns="http://www.w3.org/2000/svg">
  <path d="M 449 41.5  C 452.36 41.5  455 44.14  455 47.5  C 455 50.86  452.36 53.5  449 53.5  C 445.64 53.5  443 50.86  443 47.5  C 443 44.14  445.64 41.5  449 41.5  Z " fill-rule="nonzero" fill="#ffffff" stroke="none" />
  <path d="M 449 42  C 452.08 42  454.5 44.42  454.5 47.5  C 454.5 50.58  452.08 53  449 53  C 445.92 53  443.5 50.58  443.5 47.5  C 443.5 44.42  445.92 42  449 42  Z " stroke-width="1" stroke="#797979" fill="none" />
  <path d="M 449 50.5  C 447.32 50.5  446 49.18  446 47.5  C 446 45.82  447.32 44.5  449 44.5  C 450.68 44.5  452 45.82  452 47.5  C 452 49.18  450.68 50.5  449 50.5  " fill-rule="nonzero" fill="#797979" stroke="none" />
</svg>