<?xml version="1.0" encoding="utf-8"?>
<svg version="1.1" xmlns:xlink="http://www.w3.org/1999/xlink" width="12px" height="12px" viewBox="430 22.5  12 12" xmlns="http://www.w3.org/2000/svg">
  <path d="M 436 22.5  C 439.36 22.5  442 25.14  442 28.5  C 442 31.86  439.36 34.5  436 34.5  C 432.64 34.5  430 31.86  430 28.5  C 430 25.14  432.64 22.5  436 22.5  Z " fill-rule="nonzero" fill="#ffffff" stroke="none" />
  <path d="M 436 23  C 439.08 23  441.5 25.42  441.5 28.5  C 441.5 31.58  439.08 34  436 34  C 432.92 34  430.5 31.58  430.5 28.5  C 430.5 25.42  432.92 23  436 23  Z " stroke-width="1" stroke="#797979" fill="none" />
  <path d="M 436 31.5  C 434.32 31.5  433 30.18  433 28.5  C 433 26.82  434.32 25.5  436 25.5  C 437.68 25.5  439 26.82  439 28.5  C 439 30.18  437.68 31.5  436 31.5  " fill-rule="nonzero" fill="#797979" stroke="none" />
</svg>