<?xml version="1.0" encoding="utf-8"?>
<svg version="1.1" xmlns:xlink="http://www.w3.org/1999/xlink" width="12px" height="12px" viewBox="430 73.5  12 12" xmlns="http://www.w3.org/2000/svg">
  <path d="M 436 73.5  C 439.36 73.5  442 76.14  442 79.5  C 442 82.86  439.36 85.5  436 85.5  C 432.64 85.5  430 82.86  430 79.5  C 430 76.14  432.64 73.5  436 73.5  Z " fill-rule="nonzero" fill="#f0f0f0" stroke="none" />
  <path d="M 436 74  C 439.08 74  441.5 76.42  441.5 79.5  C 441.5 82.58  439.08 85  436 85  C 432.92 85  430.5 82.58  430.5 79.5  C 430.5 76.42  432.92 74  436 74  Z " stroke-width="1" stroke="#797979" fill="none" />
  <path d="M 436 82.5  C 434.32 82.5  433 81.18  433 79.5  C 433 77.82  434.32 76.5  436 76.5  C 437.68 76.5  439 77.82  439 79.5  C 439 81.18  437.68 82.5  436 82.5  " fill-rule="nonzero" fill="#797979" stroke="none" />
</svg>