<?xml version="1.0" encoding="utf-8"?>
<svg version="1.1" xmlns:xlink="http://www.w3.org/1999/xlink" width="12px" height="12px" viewBox="444 78.5  12 12" xmlns="http://www.w3.org/2000/svg">
  <path d="M 450 78.5  C 453.36 78.5  456 81.14  456 84.5  C 456 87.86  453.36 90.5  450 90.5  C 446.64 90.5  444 87.86  444 84.5  C 444 81.14  446.64 78.5  450 78.5  Z " fill-rule="nonzero" fill="#f0f0f0" stroke="none" />
  <path d="M 450 79  C 453.08 79  455.5 81.42  455.5 84.5  C 455.5 87.58  453.08 90  450 90  C 446.92 90  444.5 87.58  444.5 84.5  C 444.5 81.42  446.92 79  450 79  Z " stroke-width="1" stroke="#797979" fill="none" />
  <path d="M 450 87.5  C 448.32 87.5  447 86.18  447 84.5  C 447 82.82  448.32 81.5  450 81.5  C 451.68 81.5  453 82.82  453 84.5  C 453 86.18  451.68 87.5  450 87.5  " fill-rule="nonzero" fill="#797979" stroke="none" />
</svg>