<?xml version="1.0" encoding="utf-8"?>
<svg version="1.1" xmlns:xlink="http://www.w3.org/1999/xlink" width="12px" height="12px" viewBox="83 71.5  12 12" xmlns="http://www.w3.org/2000/svg">
  <path d="M 89 71.5  C 92.36 71.5  95 74.14  95 77.5  C 95 80.86  92.36 83.5  89 83.5  C 85.64 83.5  83 80.86  83 77.5  C 83 74.14  85.64 71.5  89 71.5  Z " fill-rule="nonzero" fill="#ffffff" stroke="none" />
  <path d="M 89 72  C 92.08 72  94.5 74.42  94.5 77.5  C 94.5 80.58  92.08 83  89 83  C 85.92 83  83.5 80.58  83.5 77.5  C 83.5 74.42  85.92 72  89 72  Z " stroke-width="1" stroke="#797979" fill="none" />
  <path d="M 89 80.5  C 87.32 80.5  86 79.18  86 77.5  C 86 75.82  87.32 74.5  89 74.5  C 90.68 74.5  92 75.82  92 77.5  C 92 79.18  90.68 80.5  89 80.5  " fill-rule="nonzero" fill="#797979" stroke="none" />
</svg>