<?xml version="1.0" encoding="utf-8"?>
<svg version="1.1" xmlns:xlink="http://www.w3.org/1999/xlink" width="12px" height="12px" viewBox="444 71.5  12 12" xmlns="http://www.w3.org/2000/svg">
  <path d="M 450 71.5  C 453.36 71.5  456 74.14  456 77.5  C 456 80.86  453.36 83.5  450 83.5  C 446.64 83.5  444 80.86  444 77.5  C 444 74.14  446.64 71.5  450 71.5  Z " fill-rule="nonzero" fill="#ffffff" stroke="none" />
  <path d="M 450 72  C 453.08 72  455.5 74.42  455.5 77.5  C 455.5 80.58  453.08 83  450 83  C 446.92 83  444.5 80.58  444.5 77.5  C 444.5 74.42  446.92 72  450 72  Z " stroke-width="1" stroke="#797979" fill="none" />
  <path d="M 450 80.5  C 448.32 80.5  447 79.18  447 77.5  C 447 75.82  448.32 74.5  450 74.5  C 451.68 74.5  453 75.82  453 77.5  C 453 79.18  451.68 80.5  450 80.5  " fill-rule="nonzero" fill="#797979" stroke="none" />
</svg>