<?xml version="1.0" encoding="utf-8"?>
<svg version="1.1" xmlns:xlink="http://www.w3.org/1999/xlink" width="12px" height="12px" viewBox="444 46.5  12 12" xmlns="http://www.w3.org/2000/svg">
  <path d="M 450 46.5  C 453.36 46.5  456 49.14  456 52.5  C 456 55.86  453.36 58.5  450 58.5  C 446.64 58.5  444 55.86  444 52.5  C 444 49.14  446.64 46.5  450 46.5  Z " fill-rule="nonzero" fill="#ffffff" stroke="none" />
  <path d="M 450 47  C 453.08 47  455.5 49.42  455.5 52.5  C 455.5 55.58  453.08 58  450 58  C 446.92 58  444.5 55.58  444.5 52.5  C 444.5 49.42  446.92 47  450 47  Z " stroke-width="1" stroke="#797979" fill="none" />
  <path d="M 450 55.5  C 448.32 55.5  447 54.18  447 52.5  C 447 50.82  448.32 49.5  450 49.5  C 451.68 49.5  453 50.82  453 52.5  C 453 54.18  451.68 55.5  450 55.5  " fill-rule="nonzero" fill="#797979" stroke="none" />
</svg>