<?xml version="1.0" encoding="utf-8"?>
<svg version="1.1" xmlns:xlink="http://www.w3.org/1999/xlink" width="12px" height="12px" viewBox="251 71.5  12 12" xmlns="http://www.w3.org/2000/svg">
  <path d="M 257 71.5  C 260.36 71.5  263 74.14  263 77.5  C 263 80.86  260.36 83.5  257 83.5  C 253.64 83.5  251 80.86  251 77.5  C 251 74.14  253.64 71.5  257 71.5  Z " fill-rule="nonzero" fill="#ffffff" stroke="none" />
  <path d="M 257 72  C 260.08 72  262.5 74.42  262.5 77.5  C 262.5 80.58  260.08 83  257 83  C 253.92 83  251.5 80.58  251.5 77.5  C 251.5 74.42  253.92 72  257 72  Z " stroke-width="1" stroke="#797979" fill="none" />
  <path d="M 257 80.5  C 255.32 80.5  254 79.18  254 77.5  C 254 75.82  255.32 74.5  257 74.5  C 258.68 74.5  260 75.82  260 77.5  C 260 79.18  258.68 80.5  257 80.5  " fill-rule="nonzero" fill="#797979" stroke="none" />
</svg>