<?xml version="1.0" encoding="utf-8"?>
<svg version="1.1" xmlns:xlink="http://www.w3.org/1999/xlink" width="12px" height="12px" viewBox="61 15.5  12 12" xmlns="http://www.w3.org/2000/svg">
  <path d="M 67 15.5  C 70.36 15.5  73 18.14  73 21.5  C 73 24.86  70.36 27.5  67 27.5  C 63.64 27.5  61 24.86  61 21.5  C 61 18.14  63.64 15.5  67 15.5  Z " fill-rule="nonzero" fill="#ffffff" stroke="none" />
  <path d="M 67 16  C 70.08 16  72.5 18.42  72.5 21.5  C 72.5 24.58  70.08 27  67 27  C 63.92 27  61.5 24.58  61.5 21.5  C 61.5 18.42  63.92 16  67 16  Z " stroke-width="1" stroke="#797979" fill="none" />
  <path d="M 67 24.5  C 65.32 24.5  64 23.18  64 21.5  C 64 19.82  65.32 18.5  67 18.5  C 68.68 18.5  70 19.82  70 21.5  C 70 23.18  68.68 24.5  67 24.5  " fill-rule="nonzero" fill="#797979" stroke="none" />
</svg>