<?xml version="1.0" encoding="utf-8"?>
<svg version="1.1" xmlns:xlink="http://www.w3.org/1999/xlink" width="12px" height="12px" viewBox="71 22.5  12 12" xmlns="http://www.w3.org/2000/svg">
  <path d="M 77 22.5  C 80.36 22.5  83 25.14  83 28.5  C 83 31.86  80.36 34.5  77 34.5  C 73.64 34.5  71 31.86  71 28.5  C 71 25.14  73.64 22.5  77 22.5  Z " fill-rule="nonzero" fill="#f0f0f0" stroke="none" />
  <path d="M 77 23  C 80.08 23  82.5 25.42  82.5 28.5  C 82.5 31.58  80.08 34  77 34  C 73.92 34  71.5 31.58  71.5 28.5  C 71.5 25.42  73.92 23  77 23  Z " stroke-width="1" stroke="#797979" fill="none" />
  <path d="M 77 31.5  C 75.32 31.5  74 30.18  74 28.5  C 74 26.82  75.32 25.5  77 25.5  C 78.68 25.5  80 26.82  80 28.5  C 80 30.18  78.68 31.5  77 31.5  " fill-rule="nonzero" fill="#797979" stroke="none" />
</svg>