<?xml version="1.0" encoding="utf-8"?>
<svg version="1.1" xmlns:xlink="http://www.w3.org/1999/xlink" width="12px" height="12px" viewBox="430 46.5  12 12" xmlns="http://www.w3.org/2000/svg">
  <path d="M 436 46.5  C 439.36 46.5  442 49.14  442 52.5  C 442 55.86  439.36 58.5  436 58.5  C 432.64 58.5  430 55.86  430 52.5  C 430 49.14  432.64 46.5  436 46.5  Z " fill-rule="nonzero" fill="#ffffff" stroke="none" />
  <path d="M 436 47  C 439.08 47  441.5 49.42  441.5 52.5  C 441.5 55.58  439.08 58  436 58  C 432.92 58  430.5 55.58  430.5 52.5  C 430.5 49.42  432.92 47  436 47  Z " stroke-width="1" stroke="#797979" fill="none" />
  <path d="M 436 55.5  C 434.32 55.5  433 54.18  433 52.5  C 433 50.82  434.32 49.5  436 49.5  C 437.68 49.5  439 50.82  439 52.5  C 439 54.18  437.68 55.5  436 55.5  " fill-rule="nonzero" fill="#797979" stroke="none" />
</svg>