<?xml version="1.0" encoding="utf-8"?>
<svg version="1.1" xmlns:xlink="http://www.w3.org/1999/xlink" width="12px" height="12px" viewBox="463 46.5  12 12" xmlns="http://www.w3.org/2000/svg">
  <path d="M 469 46.5  C 472.36 46.5  475 49.14  475 52.5  C 475 55.86  472.36 58.5  469 58.5  C 465.64 58.5  463 55.86  463 52.5  C 463 49.14  465.64 46.5  469 46.5  Z " fill-rule="nonzero" fill="#ffffff" stroke="none" />
  <path d="M 469 47  C 472.08 47  474.5 49.42  474.5 52.5  C 474.5 55.58  472.08 58  469 58  C 465.92 58  463.5 55.58  463.5 52.5  C 463.5 49.42  465.92 47  469 47  Z " stroke-width="1" stroke="#797979" fill="none" />
  <path d="M 469 55.5  C 467.32 55.5  466 54.18  466 52.5  C 466 50.82  467.32 49.5  469 49.5  C 470.68 49.5  472 50.82  472 52.5  C 472 54.18  470.68 55.5  469 55.5  " fill-rule="nonzero" fill="#797979" stroke="none" />
</svg>