<?xml version="1.0" encoding="utf-8"?>
<svg version="1.1" xmlns:xlink="http://www.w3.org/1999/xlink" width="12px" height="12px" viewBox="250 73.5  12 12" xmlns="http://www.w3.org/2000/svg">
  <path d="M 256 73.5  C 259.36 73.5  262 76.14  262 79.5  C 262 82.86  259.36 85.5  256 85.5  C 252.64 85.5  250 82.86  250 79.5  C 250 76.14  252.64 73.5  256 73.5  Z " fill-rule="nonzero" fill="#f0f0f0" stroke="none" />
  <path d="M 256 74  C 259.08 74  261.5 76.42  261.5 79.5  C 261.5 82.58  259.08 85  256 85  C 252.92 85  250.5 82.58  250.5 79.5  C 250.5 76.42  252.92 74  256 74  Z " stroke-width="1" stroke="#797979" fill="none" />
  <path d="M 256 82.5  C 254.32 82.5  253 81.18  253 79.5  C 253 77.82  254.32 76.5  256 76.5  C 257.68 76.5  259 77.82  259 79.5  C 259 81.18  257.68 82.5  256 82.5  " fill-rule="nonzero" fill="#797979" stroke="none" />
</svg>