<?xml version="1.0" encoding="utf-8"?>
<svg version="1.1" xmlns:xlink="http://www.w3.org/1999/xlink" width="12px" height="12px" viewBox="60 76.5  12 12" xmlns="http://www.w3.org/2000/svg">
  <path d="M 66 76.5  C 69.36 76.5  72 79.14  72 82.5  C 72 85.86  69.36 88.5  66 88.5  C 62.64 88.5  60 85.86  60 82.5  C 60 79.14  62.64 76.5  66 76.5  Z " fill-rule="nonzero" fill="#f0f0f0" stroke="none" />
  <path d="M 66 77  C 69.08 77  71.5 79.42  71.5 82.5  C 71.5 85.58  69.08 88  66 88  C 62.92 88  60.5 85.58  60.5 82.5  C 60.5 79.42  62.92 77  66 77  Z " stroke-width="1" stroke="#797979" fill="none" />
  <path d="M 66 85.5  C 64.32 85.5  63 84.18  63 82.5  C 63 80.82  64.32 79.5  66 79.5  C 67.68 79.5  69 80.82  69 82.5  C 69 84.18  67.68 85.5  66 85.5  " fill-rule="nonzero" fill="#797979" stroke="none" />
</svg>