<?xml version="1.0" encoding="utf-8"?>
<svg version="1.1" xmlns:xlink="http://www.w3.org/1999/xlink" width="12px" height="12px" viewBox="338 44.5  12 12" xmlns="http://www.w3.org/2000/svg">
  <path d="M 344 44.5  C 347.36 44.5  350 47.14  350 50.5  C 350 53.86  347.36 56.5  344 56.5  C 340.64 56.5  338 53.86  338 50.5  C 338 47.14  340.64 44.5  344 44.5  Z " fill-rule="nonzero" fill="#ffffff" stroke="none" />
  <path d="M 344 45  C 347.08 45  349.5 47.42  349.5 50.5  C 349.5 53.58  347.08 56  344 56  C 340.92 56  338.5 53.58  338.5 50.5  C 338.5 47.42  340.92 45  344 45  Z " stroke-width="1" stroke="#797979" fill="none" />
  <path d="M 344 53.5  C 342.32 53.5  341 52.18  341 50.5  C 341 48.82  342.32 47.5  344 47.5  C 345.68 47.5  347 48.82  347 50.5  C 347 52.18  345.68 53.5  344 53.5  " fill-rule="nonzero" fill="#797979" stroke="none" />
</svg>