<?xml version="1.0" encoding="utf-8"?>
<svg version="1.1" xmlns:xlink="http://www.w3.org/1999/xlink" width="9px" height="10px" xmlns="http://www.w3.org/2000/svg">
  <g transform="matrix(1 0 0 1 -1165 -69 )">
    <path d="M 8.82102272727273 3.83522727272727  C 8.94034090909091 3.96780303030303  9 4.12878787878788  9 4.31818181818182  L 9 5.68181818181818  C 9 5.87121212121212  8.94034090909091 6.03219696969697  8.82102272727273 6.16477272727273  C 8.70170454545455 6.29734848484848  8.55681818181818 6.36363636363636  8.38636363636364 6.36363636363636  L 5.72727272727273 6.36363636363636  L 5.72727272727273 9.31818181818182  C 5.72727272727273 9.50757575757576  5.66761363636364 9.66856060606061  5.54829545454545 9.80113636363636  C 5.42897727272727 9.93371212121212  5.28409090909091 10  5.11363636363636 10  L 3.88636363636364 10  C 3.71590909090909 10  3.57102272727273 9.93371212121212  3.45170454545455 9.80113636363636  C 3.33238636363636 9.66856060606061  3.27272727272727 9.50757575757576  3.27272727272727 9.31818181818182  L 3.27272727272727 6.36363636363636  L 0.613636363636364 6.36363636363636  C 0.443181818181818 6.36363636363636  0.298295454545455 6.29734848484848  0.178977272727273 6.16477272727273  C 0.0596590909090909 6.03219696969697  0 5.87121212121212  0 5.68181818181818  L 0 4.31818181818182  C 0 4.12878787878788  0.0596590909090909 3.96780303030303  0.178977272727273 3.83522727272727  C 0.298295454545455 3.70265151515151  0.443181818181818 3.63636363636364  0.613636363636364 3.63636363636364  L 3.27272727272727 3.63636363636364  L 3.27272727272727 0.681818181818182  C 3.27272727272727 0.492424242424242  3.33238636363636 0.331439393939393  3.45170454545455 0.198863636363636  C 3.57102272727273 0.0662878787878785  3.71590909090909 0  3.88636363636364 0  L 5.11363636363636 0  C 5.28409090909091 0  5.42897727272727 0.0662878787878785  5.54829545454545 0.198863636363636  C 5.66761363636364 0.331439393939393  5.72727272727273 0.492424242424242  5.72727272727273 0.681818181818182  L 5.72727272727273 3.63636363636364  L 8.38636363636364 3.63636363636364  C 8.55681818181818 3.63636363636364  8.70170454545455 3.70265151515151  8.82102272727273 3.83522727272727  Z " fill-rule="nonzero" fill="#f2f2f2" stroke="none" transform="matrix(1 0 0 1 1165 69 )" />
  </g>
</svg>