<?xml version="1.0" encoding="utf-8"?>
<svg version="1.1" xmlns:xlink="http://www.w3.org/1999/xlink" width="12px" height="12px" viewBox="431 31.5  12 12" xmlns="http://www.w3.org/2000/svg">
  <path d="M 437 31.5  C 440.36 31.5  443 34.14  443 37.5  C 443 40.86  440.36 43.5  437 43.5  C 433.64 43.5  431 40.86  431 37.5  C 431 34.14  433.64 31.5  437 31.5  Z " fill-rule="nonzero" fill="#ffffff" stroke="none" />
  <path d="M 437 32  C 440.08 32  442.5 34.42  442.5 37.5  C 442.5 40.58  440.08 43  437 43  C 433.92 43  431.5 40.58  431.5 37.5  C 431.5 34.42  433.92 32  437 32  Z " stroke-width="1" stroke="#797979" fill="none" />
  <path d="M 437 40.5  C 435.32 40.5  434 39.18  434 37.5  C 434 35.82  435.32 34.5  437 34.5  C 438.68 34.5  440 35.82  440 37.5  C 440 39.18  438.68 40.5  437 40.5  " fill-rule="nonzero" fill="#797979" stroke="none" />
</svg>