<?xml version="1.0" encoding="utf-8"?>
<svg version="1.1" xmlns:xlink="http://www.w3.org/1999/xlink" width="12px" height="12px" viewBox="428 35.5  12 12" xmlns="http://www.w3.org/2000/svg">
  <path d="M 434 35.5  C 437.36 35.5  440 38.14  440 41.5  C 440 44.86  437.36 47.5  434 47.5  C 430.64 47.5  428 44.86  428 41.5  C 428 38.14  430.64 35.5  434 35.5  Z " fill-rule="nonzero" fill="#ffffff" stroke="none" />
  <path d="M 434 36  C 437.08 36  439.5 38.42  439.5 41.5  C 439.5 44.58  437.08 47  434 47  C 430.92 47  428.5 44.58  428.5 41.5  C 428.5 38.42  430.92 36  434 36  Z " stroke-width="1" stroke="#797979" fill="none" />
  <path d="M 434 44.5  C 432.32 44.5  431 43.18  431 41.5  C 431 39.82  432.32 38.5  434 38.5  C 435.68 38.5  437 39.82  437 41.5  C 437 43.18  435.68 44.5  434 44.5  " fill-rule="nonzero" fill="#797979" stroke="none" />
</svg>