<?xml version="1.0" encoding="utf-8"?>
<svg version="1.1" xmlns:xlink="http://www.w3.org/1999/xlink" width="12px" height="12px" viewBox="346 33.5  12 12" xmlns="http://www.w3.org/2000/svg">
  <path d="M 352 33.5  C 355.36 33.5  358 36.14  358 39.5  C 358 42.86  355.36 45.5  352 45.5  C 348.64 45.5  346 42.86  346 39.5  C 346 36.14  348.64 33.5  352 33.5  Z " fill-rule="nonzero" fill="#f0f0f0" stroke="none" />
  <path d="M 352 34  C 355.08 34  357.5 36.42  357.5 39.5  C 357.5 42.58  355.08 45  352 45  C 348.92 45  346.5 42.58  346.5 39.5  C 346.5 36.42  348.92 34  352 34  Z " stroke-width="1" stroke="#797979" fill="none" />
  <path d="M 352 42.5  C 350.32 42.5  349 41.18  349 39.5  C 349 37.82  350.32 36.5  352 36.5  C 353.68 36.5  355 37.82  355 39.5  C 355 41.18  353.68 42.5  352 42.5  " fill-rule="nonzero" fill="#797979" stroke="none" />
</svg>