<?xml version="1.0" encoding="utf-8"?>
<svg version="1.1" xmlns:xlink="http://www.w3.org/1999/xlink" width="14px" height="14px" viewBox="362 305  14 14" xmlns="http://www.w3.org/2000/svg">
  <path d="M 362.5 307  A 1.5 1.5 0 0 1 364 305.5 L 374 305.5  A 1.5 1.5 0 0 1 375.5 307 L 375.5 317  A 1.5 1.5 0 0 1 374 318.5 L 364 318.5  A 1.5 1.5 0 0 1 362.5 317 L 362.5 307  Z " fill-rule="nonzero" fill="#f0f0f0" stroke="none" />
  <path d="M 362.5 307  A 1.5 1.5 0 0 1 364 305.5 L 374 305.5  A 1.5 1.5 0 0 1 375.5 307 L 375.5 317  A 1.5 1.5 0 0 1 374 318.5 L 364 318.5  A 1.5 1.5 0 0 1 362.5 317 L 362.5 307  Z " stroke-width="1" stroke="#797979" fill="none" />
  <path d="M 365.5 312.5  L 368.5 315.5  " stroke-width="3" stroke="#797979" fill="none" />
  <path d="M 368.5 315.5  L 373.5 308.5  " stroke-width="3" stroke="#797979" fill="none" />
</svg>