<?xml version="1.0" encoding="utf-8"?>
<svg version="1.1" xmlns:xlink="http://www.w3.org/1999/xlink" width="14px" height="14px" viewBox="362 597  14 14" xmlns="http://www.w3.org/2000/svg">
  <path d="M 362.5 599  A 1.5 1.5 0 0 1 364 597.5 L 374 597.5  A 1.5 1.5 0 0 1 375.5 599 L 375.5 609  A 1.5 1.5 0 0 1 374 610.5 L 364 610.5  A 1.5 1.5 0 0 1 362.5 609 L 362.5 599  Z " fill-rule="nonzero" fill="#f0f0f0" stroke="none" />
  <path d="M 362.5 599  A 1.5 1.5 0 0 1 364 597.5 L 374 597.5  A 1.5 1.5 0 0 1 375.5 599 L 375.5 609  A 1.5 1.5 0 0 1 374 610.5 L 364 610.5  A 1.5 1.5 0 0 1 362.5 609 L 362.5 599  Z " stroke-width="1" stroke="#797979" fill="none" />
  <path d="M 365.5 604.5  L 368.5 607.5  " stroke-width="3" stroke="#797979" fill="none" />
  <path d="M 368.5 607.5  L 373.5 600.5  " stroke-width="3" stroke="#797979" fill="none" />
</svg>