<?xml version="1.0" encoding="utf-8"?>
<svg version="1.1" xmlns:xlink="http://www.w3.org/1999/xlink" width="14px" height="14px" viewBox="362 706  14 14" xmlns="http://www.w3.org/2000/svg">
  <path d="M 362.5 708  A 1.5 1.5 0 0 1 364 706.5 L 374 706.5  A 1.5 1.5 0 0 1 375.5 708 L 375.5 718  A 1.5 1.5 0 0 1 374 719.5 L 364 719.5  A 1.5 1.5 0 0 1 362.5 718 L 362.5 708  Z " fill-rule="nonzero" fill="#ffffff" stroke="none" />
  <path d="M 362.5 708  A 1.5 1.5 0 0 1 364 706.5 L 374 706.5  A 1.5 1.5 0 0 1 375.5 708 L 375.5 718  A 1.5 1.5 0 0 1 374 719.5 L 364 719.5  A 1.5 1.5 0 0 1 362.5 718 L 362.5 708  Z " stroke-width="1" stroke="#797979" fill="none" />
  <path d="M 365.5 713.5  L 368.5 716.5  " stroke-width="3" stroke="#797979" fill="none" />
  <path d="M 368.5 716.5  L 373.5 709.5  " stroke-width="3" stroke="#797979" fill="none" />
</svg>