<?xml version="1.0" encoding="utf-8"?>
<svg version="1.1" xmlns:xlink="http://www.w3.org/1999/xlink" width="12px" height="12px" viewBox="609 229  12 12" xmlns="http://www.w3.org/2000/svg">
  <path d="M 615 229  C 618.36 229  621 231.64  621 235  C 621 238.36  618.36 241  615 241  C 611.64 241  609 238.36  609 235  C 609 231.64  611.64 229  615 229  Z " fill-rule="nonzero" fill="#f0f0f0" stroke="none" />
  <path d="M 615 229.5  C 618.08 229.5  620.5 231.92  620.5 235  C 620.5 238.08  618.08 240.5  615 240.5  C 611.92 240.5  609.5 238.08  609.5 235  C 609.5 231.92  611.92 229.5  615 229.5  Z " stroke-width="1" stroke="#797979" fill="none" />
  <path d="M 615 238  C 613.32 238  612 236.68  612 235  C 612 233.32  613.32 232  615 232  C 616.68 232  618 233.32  618 235  C 618 236.68  616.68 238  615 238  " fill-rule="nonzero" fill="#797979" stroke="none" />
</svg>