<?xml version="1.0" encoding="utf-8"?>
<svg version="1.1" xmlns:xlink="http://www.w3.org/1999/xlink" width="12px" height="12px" viewBox="490 229  12 12" xmlns="http://www.w3.org/2000/svg">
  <path d="M 496 229  C 499.36 229  502 231.64  502 235  C 502 238.36  499.36 241  496 241  C 492.64 241  490 238.36  490 235  C 490 231.64  492.64 229  496 229  Z " fill-rule="nonzero" fill="#f0f0f0" stroke="none" />
  <path d="M 496 229.5  C 499.08 229.5  501.5 231.92  501.5 235  C 501.5 238.08  499.08 240.5  496 240.5  C 492.92 240.5  490.5 238.08  490.5 235  C 490.5 231.92  492.92 229.5  496 229.5  Z " stroke-width="1" stroke="#797979" fill="none" />
  <path d="M 496 238  C 494.32 238  493 236.68  493 235  C 493 233.32  494.32 232  496 232  C 497.68 232  499 233.32  499 235  C 499 236.68  497.68 238  496 238  " fill-rule="nonzero" fill="#797979" stroke="none" />
</svg>