<?xml version="1.0" encoding="utf-8"?>
<svg version="1.1" xmlns:xlink="http://www.w3.org/1999/xlink" width="14px" height="14px" viewBox="76 111  14 14" xmlns="http://www.w3.org/2000/svg">
  <path d="M 76.5 113  A 1.5 1.5 0 0 1 78 111.5 L 88 111.5  A 1.5 1.5 0 0 1 89.5 113 L 89.5 123  A 1.5 1.5 0 0 1 88 124.5 L 78 124.5  A 1.5 1.5 0 0 1 76.5 123 L 76.5 113  Z " fill-rule="nonzero" fill="#f0f0f0" stroke="none" />
  <path d="M 76.5 113  A 1.5 1.5 0 0 1 78 111.5 L 88 111.5  A 1.5 1.5 0 0 1 89.5 113 L 89.5 123  A 1.5 1.5 0 0 1 88 124.5 L 78 124.5  A 1.5 1.5 0 0 1 76.5 123 L 76.5 113  Z " stroke-width="1" stroke="#797979" fill="none" />
  <path d="M 79.5 118.5  L 82.5 121.5  " stroke-width="3" stroke="#797979" fill="none" />
  <path d="M 82.5 121.5  L 87.5 114.5  " stroke-width="3" stroke="#797979" fill="none" />
</svg>