<?xml version="1.0" encoding="utf-8"?>
<svg version="1.1" xmlns:xlink="http://www.w3.org/1999/xlink" width="14px" height="14px" viewBox="75 114  14 14" xmlns="http://www.w3.org/2000/svg">
  <path d="M 75.5 116  A 1.5 1.5 0 0 1 77 114.5 L 87 114.5  A 1.5 1.5 0 0 1 88.5 116 L 88.5 126  A 1.5 1.5 0 0 1 87 127.5 L 77 127.5  A 1.5 1.5 0 0 1 75.5 126 L 75.5 116  Z " fill-rule="nonzero" fill="#ffffff" stroke="none" />
  <path d="M 75.5 116  A 1.5 1.5 0 0 1 77 114.5 L 87 114.5  A 1.5 1.5 0 0 1 88.5 116 L 88.5 126  A 1.5 1.5 0 0 1 87 127.5 L 77 127.5  A 1.5 1.5 0 0 1 75.5 126 L 75.5 116  Z " stroke-width="1" stroke="#797979" fill="none" />
  <path d="M 78.5 121.5  L 81.5 124.5  " stroke-width="3" stroke="#797979" fill="none" />
  <path d="M 81.5 124.5  L 86.5 117.5  " stroke-width="3" stroke="#797979" fill="none" />
</svg>