<?xml version="1.0" encoding="utf-8"?>
<svg version="1.1" xmlns:xlink="http://www.w3.org/1999/xlink" width="14px" height="14px" viewBox="76 59  14 14" xmlns="http://www.w3.org/2000/svg">
  <path d="M 76.5 61  A 1.5 1.5 0 0 1 78 59.5 L 88 59.5  A 1.5 1.5 0 0 1 89.5 61 L 89.5 71  A 1.5 1.5 0 0 1 88 72.5 L 78 72.5  A 1.5 1.5 0 0 1 76.5 71 L 76.5 61  Z " fill-rule="nonzero" fill="#f0f0f0" stroke="none" />
  <path d="M 76.5 61  A 1.5 1.5 0 0 1 78 59.5 L 88 59.5  A 1.5 1.5 0 0 1 89.5 61 L 89.5 71  A 1.5 1.5 0 0 1 88 72.5 L 78 72.5  A 1.5 1.5 0 0 1 76.5 71 L 76.5 61  Z " stroke-width="1" stroke="#797979" fill="none" />
</svg>