<?xml version="1.0" encoding="utf-8"?>
<svg version="1.1" xmlns:xlink="http://www.w3.org/1999/xlink" width="14px" height="14px" viewBox="73 169  14 14" xmlns="http://www.w3.org/2000/svg">
  <path d="M 73.5 171  A 1.5 1.5 0 0 1 75 169.5 L 85 169.5  A 1.5 1.5 0 0 1 86.5 171 L 86.5 181  A 1.5 1.5 0 0 1 85 182.5 L 75 182.5  A 1.5 1.5 0 0 1 73.5 181 L 73.5 171  Z " fill-rule="nonzero" fill="#f0f0f0" stroke="none" />
  <path d="M 73.5 171  A 1.5 1.5 0 0 1 75 169.5 L 85 169.5  A 1.5 1.5 0 0 1 86.5 171 L 86.5 181  A 1.5 1.5 0 0 1 85 182.5 L 75 182.5  A 1.5 1.5 0 0 1 73.5 181 L 73.5 171  Z " stroke-width="1" stroke="#797979" fill="none" />
  <path d="M 76.5 176.5  L 79.5 179.5  " stroke-width="3" stroke="#797979" fill="none" />
  <path d="M 79.5 179.5  L 84.5 172.5  " stroke-width="3" stroke="#797979" fill="none" />
</svg>