<?xml version="1.0" encoding="utf-8"?>
<svg version="1.1" xmlns:xlink="http://www.w3.org/1999/xlink" width="14px" height="14px" viewBox="75 313  14 14" xmlns="http://www.w3.org/2000/svg">
  <path d="M 75.5 315  A 1.5 1.5 0 0 1 77 313.5 L 87 313.5  A 1.5 1.5 0 0 1 88.5 315 L 88.5 325  A 1.5 1.5 0 0 1 87 326.5 L 77 326.5  A 1.5 1.5 0 0 1 75.5 325 L 75.5 315  Z " fill-rule="nonzero" fill="#f0f0f0" stroke="none" />
  <path d="M 75.5 315  A 1.5 1.5 0 0 1 77 313.5 L 87 313.5  A 1.5 1.5 0 0 1 88.5 315 L 88.5 325  A 1.5 1.5 0 0 1 87 326.5 L 77 326.5  A 1.5 1.5 0 0 1 75.5 325 L 75.5 315  Z " stroke-width="1" stroke="#797979" fill="none" />
</svg>