<?xml version="1.0" encoding="utf-8"?>
<svg version="1.1" xmlns:xlink="http://www.w3.org/1999/xlink" width="14px" height="14px" viewBox="75 168  14 14" xmlns="http://www.w3.org/2000/svg">
  <path d="M 75.5 170  A 1.5 1.5 0 0 1 77 168.5 L 87 168.5  A 1.5 1.5 0 0 1 88.5 170 L 88.5 180  A 1.5 1.5 0 0 1 87 181.5 L 77 181.5  A 1.5 1.5 0 0 1 75.5 180 L 75.5 170  Z " fill-rule="nonzero" fill="#f0f0f0" stroke="none" />
  <path d="M 75.5 170  A 1.5 1.5 0 0 1 77 168.5 L 87 168.5  A 1.5 1.5 0 0 1 88.5 170 L 88.5 180  A 1.5 1.5 0 0 1 87 181.5 L 77 181.5  A 1.5 1.5 0 0 1 75.5 180 L 75.5 170  Z " stroke-width="1" stroke="#797979" fill="none" />
</svg>