<?xml version="1.0" encoding="utf-8"?>
<svg version="1.1" xmlns:xlink="http://www.w3.org/1999/xlink" width="14px" height="14px" viewBox="362 362  14 14" xmlns="http://www.w3.org/2000/svg">
  <path d="M 362.5 364  A 1.5 1.5 0 0 1 364 362.5 L 374 362.5  A 1.5 1.5 0 0 1 375.5 364 L 375.5 374  A 1.5 1.5 0 0 1 374 375.5 L 364 375.5  A 1.5 1.5 0 0 1 362.5 374 L 362.5 364  Z " fill-rule="nonzero" fill="#ffffff" stroke="none" />
  <path d="M 362.5 364  A 1.5 1.5 0 0 1 364 362.5 L 374 362.5  A 1.5 1.5 0 0 1 375.5 364 L 375.5 374  A 1.5 1.5 0 0 1 374 375.5 L 364 375.5  A 1.5 1.5 0 0 1 362.5 374 L 362.5 364  Z " stroke-width="1" stroke="#797979" fill="none" />
</svg>