<?xml version="1.0" encoding="utf-8"?>
<svg version="1.1" xmlns:xlink="http://www.w3.org/1999/xlink" width="14px" height="14px" viewBox="361 469  14 14" xmlns="http://www.w3.org/2000/svg">
  <path d="M 361.5 471  A 1.5 1.5 0 0 1 363 469.5 L 373 469.5  A 1.5 1.5 0 0 1 374.5 471 L 374.5 481  A 1.5 1.5 0 0 1 373 482.5 L 363 482.5  A 1.5 1.5 0 0 1 361.5 481 L 361.5 471  Z " fill-rule="nonzero" fill="#ffffff" stroke="none" />
  <path d="M 361.5 471  A 1.5 1.5 0 0 1 363 469.5 L 373 469.5  A 1.5 1.5 0 0 1 374.5 471 L 374.5 481  A 1.5 1.5 0 0 1 373 482.5 L 363 482.5  A 1.5 1.5 0 0 1 361.5 481 L 361.5 471  Z " stroke-width="1" stroke="#797979" fill="none" />
</svg>