<?xml version="1.0" encoding="utf-8"?>
<svg version="1.1" xmlns:xlink="http://www.w3.org/1999/xlink" width="14px" height="14px" viewBox="365 293  14 14" xmlns="http://www.w3.org/2000/svg">
  <path d="M 365.5 295  A 1.5 1.5 0 0 1 367 293.5 L 377 293.5  A 1.5 1.5 0 0 1 378.5 295 L 378.5 305  A 1.5 1.5 0 0 1 377 306.5 L 367 306.5  A 1.5 1.5 0 0 1 365.5 305 L 365.5 295  Z " fill-rule="nonzero" fill="#ffffff" stroke="none" />
  <path d="M 365.5 295  A 1.5 1.5 0 0 1 367 293.5 L 377 293.5  A 1.5 1.5 0 0 1 378.5 295 L 378.5 305  A 1.5 1.5 0 0 1 377 306.5 L 367 306.5  A 1.5 1.5 0 0 1 365.5 305 L 365.5 295  Z " stroke-width="1" stroke="#797979" fill="none" />
</svg>