<?xml version="1.0" encoding="utf-8"?>
<svg version="1.1" xmlns:xlink="http://www.w3.org/1999/xlink" width="14px" height="14px" viewBox="361 404  14 14" xmlns="http://www.w3.org/2000/svg">
  <path d="M 361.5 406  A 1.5 1.5 0 0 1 363 404.5 L 373 404.5  A 1.5 1.5 0 0 1 374.5 406 L 374.5 416  A 1.5 1.5 0 0 1 373 417.5 L 363 417.5  A 1.5 1.5 0 0 1 361.5 416 L 361.5 406  Z " fill-rule="nonzero" fill="#f0f0f0" stroke="none" />
  <path d="M 361.5 406  A 1.5 1.5 0 0 1 363 404.5 L 373 404.5  A 1.5 1.5 0 0 1 374.5 406 L 374.5 416  A 1.5 1.5 0 0 1 373 417.5 L 363 417.5  A 1.5 1.5 0 0 1 361.5 416 L 361.5 406  Z " stroke-width="1" stroke="#797979" fill="none" />
</svg>