<?xml version="1.0" encoding="utf-8"?>
<svg version="1.1" xmlns:xlink="http://www.w3.org/1999/xlink" width="14px" height="14px" viewBox="361 564  14 14" xmlns="http://www.w3.org/2000/svg">
  <path d="M 361.5 566  A 1.5 1.5 0 0 1 363 564.5 L 373 564.5  A 1.5 1.5 0 0 1 374.5 566 L 374.5 576  A 1.5 1.5 0 0 1 373 577.5 L 363 577.5  A 1.5 1.5 0 0 1 361.5 576 L 361.5 566  Z " fill-rule="nonzero" fill="#ffffff" stroke="none" />
  <path d="M 361.5 566  A 1.5 1.5 0 0 1 363 564.5 L 373 564.5  A 1.5 1.5 0 0 1 374.5 566 L 374.5 576  A 1.5 1.5 0 0 1 373 577.5 L 363 577.5  A 1.5 1.5 0 0 1 361.5 576 L 361.5 566  Z " stroke-width="1" stroke="#797979" fill="none" />
  <path d="M 364.5 571.5  L 367.5 574.5  " stroke-width="3" stroke="#797979" fill="none" />
  <path d="M 367.5 574.5  L 372.5 567.5  " stroke-width="3" stroke="#797979" fill="none" />
</svg>