<?xml version="1.0" encoding="utf-8"?>
<svg version="1.1" xmlns:xlink="http://www.w3.org/1999/xlink" width="14px" height="14px" viewBox="361 647  14 14" xmlns="http://www.w3.org/2000/svg">
  <path d="M 361.5 649  A 1.5 1.5 0 0 1 363 647.5 L 373 647.5  A 1.5 1.5 0 0 1 374.5 649 L 374.5 659  A 1.5 1.5 0 0 1 373 660.5 L 363 660.5  A 1.5 1.5 0 0 1 361.5 659 L 361.5 649  Z " fill-rule="nonzero" fill="#ffffff" stroke="none" />
  <path d="M 361.5 649  A 1.5 1.5 0 0 1 363 647.5 L 373 647.5  A 1.5 1.5 0 0 1 374.5 649 L 374.5 659  A 1.5 1.5 0 0 1 373 660.5 L 363 660.5  A 1.5 1.5 0 0 1 361.5 659 L 361.5 649  Z " stroke-width="1" stroke="#797979" fill="none" />
  <path d="M 364.5 654.5  L 367.5 657.5  " stroke-width="3" stroke="#797979" fill="none" />
  <path d="M 367.5 657.5  L 372.5 650.5  " stroke-width="3" stroke="#797979" fill="none" />
</svg>