<?xml version="1.0" encoding="utf-8"?>
<svg version="1.1" xmlns:xlink="http://www.w3.org/1999/xlink" width="14px" height="14px" viewBox="78 159  14 14" xmlns="http://www.w3.org/2000/svg">
  <path d="M 78.5 161  A 1.5 1.5 0 0 1 80 159.5 L 90 159.5  A 1.5 1.5 0 0 1 91.5 161 L 91.5 171  A 1.5 1.5 0 0 1 90 172.5 L 80 172.5  A 1.5 1.5 0 0 1 78.5 171 L 78.5 161  Z " fill-rule="nonzero" fill="#f0f0f0" stroke="none" />
  <path d="M 78.5 161  A 1.5 1.5 0 0 1 80 159.5 L 90 159.5  A 1.5 1.5 0 0 1 91.5 161 L 91.5 171  A 1.5 1.5 0 0 1 90 172.5 L 80 172.5  A 1.5 1.5 0 0 1 78.5 171 L 78.5 161  Z " stroke-width="1" stroke="#797979" fill="none" />
  <path d="M 81.5 166.5  L 84.5 169.5  " stroke-width="3" stroke="#797979" fill="none" />
  <path d="M 84.5 169.5  L 89.5 162.5  " stroke-width="3" stroke="#797979" fill="none" />
</svg>