<?xml version="1.0" encoding="utf-8"?>
<svg version="1.1" xmlns:xlink="http://www.w3.org/1999/xlink" width="14px" height="14px" viewBox="76 61  14 14" xmlns="http://www.w3.org/2000/svg">
  <path d="M 76.5 63  A 1.5 1.5 0 0 1 78 61.5 L 88 61.5  A 1.5 1.5 0 0 1 89.5 63 L 89.5 73  A 1.5 1.5 0 0 1 88 74.5 L 78 74.5  A 1.5 1.5 0 0 1 76.5 73 L 76.5 63  Z " fill-rule="nonzero" fill="#ffffff" stroke="none" />
  <path d="M 76.5 63  A 1.5 1.5 0 0 1 78 61.5 L 88 61.5  A 1.5 1.5 0 0 1 89.5 63 L 89.5 73  A 1.5 1.5 0 0 1 88 74.5 L 78 74.5  A 1.5 1.5 0 0 1 76.5 73 L 76.5 63  Z " stroke-width="1" stroke="#797979" fill="none" />
</svg>