<?xml version="1.0" encoding="utf-8"?>
<svg version="1.1" xmlns:xlink="http://www.w3.org/1999/xlink" width="14px" height="14px" viewBox="76 126  14 14" xmlns="http://www.w3.org/2000/svg">
  <path d="M 76.5 128  A 1.5 1.5 0 0 1 78 126.5 L 88 126.5  A 1.5 1.5 0 0 1 89.5 128 L 89.5 138  A 1.5 1.5 0 0 1 88 139.5 L 78 139.5  A 1.5 1.5 0 0 1 76.5 138 L 76.5 128  Z " fill-rule="nonzero" fill="#ffffff" stroke="none" />
  <path d="M 76.5 128  A 1.5 1.5 0 0 1 78 126.5 L 88 126.5  A 1.5 1.5 0 0 1 89.5 128 L 89.5 138  A 1.5 1.5 0 0 1 88 139.5 L 78 139.5  A 1.5 1.5 0 0 1 76.5 138 L 76.5 128  Z " stroke-width="1" stroke="#797979" fill="none" />
  <path d="M 79.5 133.5  L 82.5 136.5  " stroke-width="3" stroke="#797979" fill="none" />
  <path d="M 82.5 136.5  L 87.5 129.5  " stroke-width="3" stroke="#797979" fill="none" />
</svg>