<?xml version="1.0" encoding="utf-8"?>
<svg version="1.1" xmlns:xlink="http://www.w3.org/1999/xlink" width="14px" height="14px" viewBox="78 61  14 14" xmlns="http://www.w3.org/2000/svg">
  <path d="M 78.5 63  A 1.5 1.5 0 0 1 80 61.5 L 90 61.5  A 1.5 1.5 0 0 1 91.5 63 L 91.5 73  A 1.5 1.5 0 0 1 90 74.5 L 80 74.5  A 1.5 1.5 0 0 1 78.5 73 L 78.5 63  Z " fill-rule="nonzero" fill="#ffffff" stroke="none" />
  <path d="M 78.5 63  A 1.5 1.5 0 0 1 80 61.5 L 90 61.5  A 1.5 1.5 0 0 1 91.5 63 L 91.5 73  A 1.5 1.5 0 0 1 90 74.5 L 80 74.5  A 1.5 1.5 0 0 1 78.5 73 L 78.5 63  Z " stroke-width="1" stroke="#797979" fill="none" />
  <path d="M 81.5 68.5  L 84.5 71.5  " stroke-width="3" stroke="#797979" fill="none" />
  <path d="M 84.5 71.5  L 89.5 64.5  " stroke-width="3" stroke="#797979" fill="none" />
</svg>