<?xml version="1.0" encoding="utf-8"?>
<svg version="1.1" xmlns:xlink="http://www.w3.org/1999/xlink" width="14px" height="14px" viewBox="74 270  14 14" xmlns="http://www.w3.org/2000/svg">
  <path d="M 74.5 272  A 1.5 1.5 0 0 1 76 270.5 L 86 270.5  A 1.5 1.5 0 0 1 87.5 272 L 87.5 282  A 1.5 1.5 0 0 1 86 283.5 L 76 283.5  A 1.5 1.5 0 0 1 74.5 282 L 74.5 272  Z " fill-rule="nonzero" fill="#ffffff" stroke="none" />
  <path d="M 74.5 272  A 1.5 1.5 0 0 1 76 270.5 L 86 270.5  A 1.5 1.5 0 0 1 87.5 272 L 87.5 282  A 1.5 1.5 0 0 1 86 283.5 L 76 283.5  A 1.5 1.5 0 0 1 74.5 282 L 74.5 272  Z " stroke-width="1" stroke="#797979" fill="none" />
</svg>