<?xml version="1.0" encoding="utf-8"?>
<svg version="1.1" xmlns:xlink="http://www.w3.org/1999/xlink" width="14px" height="14px" viewBox="72 129  14 14" xmlns="http://www.w3.org/2000/svg">
  <path d="M 72.5 131  A 1.5 1.5 0 0 1 74 129.5 L 84 129.5  A 1.5 1.5 0 0 1 85.5 131 L 85.5 141  A 1.5 1.5 0 0 1 84 142.5 L 74 142.5  A 1.5 1.5 0 0 1 72.5 141 L 72.5 131  Z " fill-rule="nonzero" fill="#ffffff" stroke="none" />
  <path d="M 72.5 131  A 1.5 1.5 0 0 1 74 129.5 L 84 129.5  A 1.5 1.5 0 0 1 85.5 131 L 85.5 141  A 1.5 1.5 0 0 1 84 142.5 L 74 142.5  A 1.5 1.5 0 0 1 72.5 141 L 72.5 131  Z " stroke-width="1" stroke="#797979" fill="none" />
</svg>