<?xml version="1.0" encoding="utf-8"?>
<svg version="1.1" xmlns:xlink="http://www.w3.org/1999/xlink" width="14px" height="14px" viewBox="365 306  14 14" xmlns="http://www.w3.org/2000/svg">
  <path d="M 365.5 308  A 1.5 1.5 0 0 1 367 306.5 L 377 306.5  A 1.5 1.5 0 0 1 378.5 308 L 378.5 318  A 1.5 1.5 0 0 1 377 319.5 L 367 319.5  A 1.5 1.5 0 0 1 365.5 318 L 365.5 308  Z " fill-rule="nonzero" fill="#ffffff" stroke="none" />
  <path d="M 365.5 308  A 1.5 1.5 0 0 1 367 306.5 L 377 306.5  A 1.5 1.5 0 0 1 378.5 308 L 378.5 318  A 1.5 1.5 0 0 1 377 319.5 L 367 319.5  A 1.5 1.5 0 0 1 365.5 318 L 365.5 308  Z " stroke-width="1" stroke="#797979" fill="none" />
  <path d="M 368.5 313.5  L 371.5 316.5  " stroke-width="3" stroke="#797979" fill="none" />
  <path d="M 371.5 316.5  L 376.5 309.5  " stroke-width="3" stroke="#797979" fill="none" />
</svg>