<?xml version="1.0" encoding="utf-8"?>
<svg version="1.1" xmlns:xlink="http://www.w3.org/1999/xlink" width="14px" height="14px" viewBox="365 362  14 14" xmlns="http://www.w3.org/2000/svg">
  <path d="M 365.5 364  A 1.5 1.5 0 0 1 367 362.5 L 377 362.5  A 1.5 1.5 0 0 1 378.5 364 L 378.5 374  A 1.5 1.5 0 0 1 377 375.5 L 367 375.5  A 1.5 1.5 0 0 1 365.5 374 L 365.5 364  Z " fill-rule="nonzero" fill="#ffffff" stroke="none" />
  <path d="M 365.5 364  A 1.5 1.5 0 0 1 367 362.5 L 377 362.5  A 1.5 1.5 0 0 1 378.5 364 L 378.5 374  A 1.5 1.5 0 0 1 377 375.5 L 367 375.5  A 1.5 1.5 0 0 1 365.5 374 L 365.5 364  Z " stroke-width="1" stroke="#797979" fill="none" />
</svg>