<?xml version="1.0" encoding="utf-8"?>
<svg version="1.1" xmlns:xlink="http://www.w3.org/1999/xlink" width="14px" height="14px" viewBox="365 412  14 14" xmlns="http://www.w3.org/2000/svg">
  <path d="M 365.5 414  A 1.5 1.5 0 0 1 367 412.5 L 377 412.5  A 1.5 1.5 0 0 1 378.5 414 L 378.5 424  A 1.5 1.5 0 0 1 377 425.5 L 367 425.5  A 1.5 1.5 0 0 1 365.5 424 L 365.5 414  Z " fill-rule="nonzero" fill="#ffffff" stroke="none" />
  <path d="M 365.5 414  A 1.5 1.5 0 0 1 367 412.5 L 377 412.5  A 1.5 1.5 0 0 1 378.5 414 L 378.5 424  A 1.5 1.5 0 0 1 377 425.5 L 367 425.5  A 1.5 1.5 0 0 1 365.5 424 L 365.5 414  Z " stroke-width="1" stroke="#797979" fill="none" />
  <path d="M 368.5 419.5  L 371.5 422.5  " stroke-width="3" stroke="#797979" fill="none" />
  <path d="M 371.5 422.5  L 376.5 415.5  " stroke-width="3" stroke="#797979" fill="none" />
</svg>