<?xml version="1.0" encoding="utf-8"?>
<svg version="1.1" xmlns:xlink="http://www.w3.org/1999/xlink" width="14px" height="14px" viewBox="358 195  14 14" xmlns="http://www.w3.org/2000/svg">
  <path d="M 358.5 197  A 1.5 1.5 0 0 1 360 195.5 L 370 195.5  A 1.5 1.5 0 0 1 371.5 197 L 371.5 207  A 1.5 1.5 0 0 1 370 208.5 L 360 208.5  A 1.5 1.5 0 0 1 358.5 207 L 358.5 197  Z " fill-rule="nonzero" fill="#f0f0f0" stroke="none" />
  <path d="M 358.5 197  A 1.5 1.5 0 0 1 360 195.5 L 370 195.5  A 1.5 1.5 0 0 1 371.5 197 L 371.5 207  A 1.5 1.5 0 0 1 370 208.5 L 360 208.5  A 1.5 1.5 0 0 1 358.5 207 L 358.5 197  Z " stroke-width="1" stroke="#797979" fill="none" />
  <path d="M 361.5 202.5  L 364.5 205.5  " stroke-width="3" stroke="#797979" fill="none" />
  <path d="M 364.5 205.5  L 369.5 198.5  " stroke-width="3" stroke="#797979" fill="none" />
</svg>