<?xml version="1.0" encoding="utf-8"?>
<svg version="1.1" xmlns:xlink="http://www.w3.org/1999/xlink" width="14px" height="14px" viewBox="358 300  14 14" xmlns="http://www.w3.org/2000/svg">
  <path d="M 358.5 302  A 1.5 1.5 0 0 1 360 300.5 L 370 300.5  A 1.5 1.5 0 0 1 371.5 302 L 371.5 312  A 1.5 1.5 0 0 1 370 313.5 L 360 313.5  A 1.5 1.5 0 0 1 358.5 312 L 358.5 302  Z " fill-rule="nonzero" fill="#ffffff" stroke="none" />
  <path d="M 358.5 302  A 1.5 1.5 0 0 1 360 300.5 L 370 300.5  A 1.5 1.5 0 0 1 371.5 302 L 371.5 312  A 1.5 1.5 0 0 1 370 313.5 L 360 313.5  A 1.5 1.5 0 0 1 358.5 312 L 358.5 302  Z " stroke-width="1" stroke="#797979" fill="none" />
  <path d="M 361.5 307.5  L 364.5 310.5  " stroke-width="3" stroke="#797979" fill="none" />
  <path d="M 364.5 310.5  L 369.5 303.5  " stroke-width="3" stroke="#797979" fill="none" />
</svg>