<?xml version="1.0" encoding="utf-8"?>
<svg version="1.1" xmlns:xlink="http://www.w3.org/1999/xlink" width="14px" height="14px" viewBox="358 457  14 14" xmlns="http://www.w3.org/2000/svg">
  <path d="M 358.5 459  A 1.5 1.5 0 0 1 360 457.5 L 370 457.5  A 1.5 1.5 0 0 1 371.5 459 L 371.5 469  A 1.5 1.5 0 0 1 370 470.5 L 360 470.5  A 1.5 1.5 0 0 1 358.5 469 L 358.5 459  Z " fill-rule="nonzero" fill="#f0f0f0" stroke="none" />
  <path d="M 358.5 459  A 1.5 1.5 0 0 1 360 457.5 L 370 457.5  A 1.5 1.5 0 0 1 371.5 459 L 371.5 469  A 1.5 1.5 0 0 1 370 470.5 L 360 470.5  A 1.5 1.5 0 0 1 358.5 469 L 358.5 459  Z " stroke-width="1" stroke="#797979" fill="none" />
  <path d="M 361.5 464.5  L 364.5 467.5  " stroke-width="3" stroke="#797979" fill="none" />
  <path d="M 364.5 467.5  L 369.5 460.5  " stroke-width="3" stroke="#797979" fill="none" />
</svg>