<?xml version="1.0" encoding="utf-8"?>
<svg version="1.1" xmlns:xlink="http://www.w3.org/1999/xlink" width="14px" height="14px" viewBox="358 718  14 14" xmlns="http://www.w3.org/2000/svg">
  <path d="M 358.5 720  A 1.5 1.5 0 0 1 360 718.5 L 370 718.5  A 1.5 1.5 0 0 1 371.5 720 L 371.5 730  A 1.5 1.5 0 0 1 370 731.5 L 360 731.5  A 1.5 1.5 0 0 1 358.5 730 L 358.5 720  Z " fill-rule="nonzero" fill="#f0f0f0" stroke="none" />
  <path d="M 358.5 720  A 1.5 1.5 0 0 1 360 718.5 L 370 718.5  A 1.5 1.5 0 0 1 371.5 720 L 371.5 730  A 1.5 1.5 0 0 1 370 731.5 L 360 731.5  A 1.5 1.5 0 0 1 358.5 730 L 358.5 720  Z " stroke-width="1" stroke="#797979" fill="none" />
</svg>