<?xml version="1.0" encoding="utf-8"?>
<svg version="1.1" xmlns:xlink="http://www.w3.org/1999/xlink" width="14px" height="14px" viewBox="358 404  14 14" xmlns="http://www.w3.org/2000/svg">
  <path d="M 358.5 406  A 1.5 1.5 0 0 1 360 404.5 L 370 404.5  A 1.5 1.5 0 0 1 371.5 406 L 371.5 416  A 1.5 1.5 0 0 1 370 417.5 L 360 417.5  A 1.5 1.5 0 0 1 358.5 416 L 358.5 406  Z " fill-rule="nonzero" fill="#f0f0f0" stroke="none" />
  <path d="M 358.5 406  A 1.5 1.5 0 0 1 360 404.5 L 370 404.5  A 1.5 1.5 0 0 1 371.5 406 L 371.5 416  A 1.5 1.5 0 0 1 370 417.5 L 360 417.5  A 1.5 1.5 0 0 1 358.5 416 L 358.5 406  Z " stroke-width="1" stroke="#797979" fill="none" />
  <path d="M 361.5 411.5  L 364.5 414.5  " stroke-width="3" stroke="#797979" fill="none" />
  <path d="M 364.5 414.5  L 369.5 407.5  " stroke-width="3" stroke="#797979" fill="none" />
</svg>