<?xml version="1.0" encoding="utf-8"?>
<svg version="1.1" xmlns:xlink="http://www.w3.org/1999/xlink" width="14px" height="14px" viewBox="358 509  14 14" xmlns="http://www.w3.org/2000/svg">
  <path d="M 358.5 511  A 1.5 1.5 0 0 1 360 509.5 L 370 509.5  A 1.5 1.5 0 0 1 371.5 511 L 371.5 521  A 1.5 1.5 0 0 1 370 522.5 L 360 522.5  A 1.5 1.5 0 0 1 358.5 521 L 358.5 511  Z " fill-rule="nonzero" fill="#f0f0f0" stroke="none" />
  <path d="M 358.5 511  A 1.5 1.5 0 0 1 360 509.5 L 370 509.5  A 1.5 1.5 0 0 1 371.5 511 L 371.5 521  A 1.5 1.5 0 0 1 370 522.5 L 360 522.5  A 1.5 1.5 0 0 1 358.5 521 L 358.5 511  Z " stroke-width="1" stroke="#797979" fill="none" />
</svg>