<?xml version="1.0" encoding="utf-8"?>
<svg version="1.1" xmlns:xlink="http://www.w3.org/1999/xlink" width="14px" height="14px" viewBox="358 666  14 14" xmlns="http://www.w3.org/2000/svg">
  <path d="M 358.5 668  A 1.5 1.5 0 0 1 360 666.5 L 370 666.5  A 1.5 1.5 0 0 1 371.5 668 L 371.5 678  A 1.5 1.5 0 0 1 370 679.5 L 360 679.5  A 1.5 1.5 0 0 1 358.5 678 L 358.5 668  Z " fill-rule="nonzero" fill="#ffffff" stroke="none" />
  <path d="M 358.5 668  A 1.5 1.5 0 0 1 360 666.5 L 370 666.5  A 1.5 1.5 0 0 1 371.5 668 L 371.5 678  A 1.5 1.5 0 0 1 370 679.5 L 360 679.5  A 1.5 1.5 0 0 1 358.5 678 L 358.5 668  Z " stroke-width="1" stroke="#797979" fill="none" />
</svg>