<?xml version="1.0" encoding="utf-8"?>
<svg version="1.1" xmlns:xlink="http://www.w3.org/1999/xlink" width="14px" height="14px" viewBox="358 247  14 14" xmlns="http://www.w3.org/2000/svg">
  <path d="M 358.5 249  A 1.5 1.5 0 0 1 360 247.5 L 370 247.5  A 1.5 1.5 0 0 1 371.5 249 L 371.5 259  A 1.5 1.5 0 0 1 370 260.5 L 360 260.5  A 1.5 1.5 0 0 1 358.5 259 L 358.5 249  Z " fill-rule="nonzero" fill="#f0f0f0" stroke="none" />
  <path d="M 358.5 249  A 1.5 1.5 0 0 1 360 247.5 L 370 247.5  A 1.5 1.5 0 0 1 371.5 249 L 371.5 259  A 1.5 1.5 0 0 1 370 260.5 L 360 260.5  A 1.5 1.5 0 0 1 358.5 259 L 358.5 249  Z " stroke-width="1" stroke="#797979" fill="none" />
</svg>