<?xml version="1.0" encoding="utf-8"?>
<svg version="1.1" xmlns:xlink="http://www.w3.org/1999/xlink" width="665px" height="462px" xmlns="http://www.w3.org/2000/svg">
  <defs>
    <filter x="233px" y="245px" width="665px" height="462px" filterUnits="userSpaceOnUse" id="filter131">
      <feOffset dx="5" dy="5" in="SourceAlpha" result="shadowOffsetInner" />
      <feGaussianBlur stdDeviation="2.5" in="shadowOffsetInner" result="shadowGaussian" />
      <feComposite in2="shadowGaussian" operator="atop" in="SourceAlpha" result="shadowComposite" />
      <feColorMatrix type="matrix" values="0 0 0 0 0  0 0 0 0 0  0 0 0 0 0  0 0 0 0.349019607843137 0  " in="shadowComposite" />
    </filter>
    <g id="widget132">
      <path d="M 234 251  A 5 5 0 0 1 239 246 L 882 246  A 5 5 0 0 1 887 251 L 887 691  A 5 5 0 0 1 882 696 L 239 696  A 5 5 0 0 1 234 691 L 234 251  Z " fill-rule="nonzero" fill="#ffffff" stroke="none" />
      <path d="M 233.5 251  A 5.5 5.5 0 0 1 239 245.5 L 882 245.5  A 5.5 5.5 0 0 1 887.5 251 L 887.5 691  A 5.5 5.5 0 0 1 882 696.5 L 239 696.5  A 5.5 5.5 0 0 1 233.5 691 L 233.5 251  Z " stroke-width="1" stroke="#000000" fill="none" stroke-opacity="0.349019607843137" />
    </g>
  </defs>
  <g transform="matrix(1 0 0 1 -233 -245 )">
    <use xlink:href="#widget132" filter="url(#filter131)" />
    <use xlink:href="#widget132" />
  </g>
</svg>