<?xml version="1.0" encoding="utf-8"?>
<svg version="1.1" xmlns:xlink="http://www.w3.org/1999/xlink" width="12px" height="12px" viewBox="476 17.5  12 12" xmlns="http://www.w3.org/2000/svg">
  <path d="M 482 17.5  C 485.36 17.5  488 20.14  488 23.5  C 488 26.86  485.36 29.5  482 29.5  C 478.64 29.5  476 26.86  476 23.5  C 476 20.14  478.64 17.5  482 17.5  Z " fill-rule="nonzero" fill="#ffffff" stroke="none" />
  <path d="M 482 18  C 485.08 18  487.5 20.42  487.5 23.5  C 487.5 26.58  485.08 29  482 29  C 478.92 29  476.5 26.58  476.5 23.5  C 476.5 20.42  478.92 18  482 18  Z " stroke-width="1" stroke="#797979" fill="none" />
  <path d="M 482 26.5  C 480.32 26.5  479 25.18  479 23.5  C 479 21.82  480.32 20.5  482 20.5  C 483.68 20.5  485 21.82  485 23.5  C 485 25.18  483.68 26.5  482 26.5  " fill-rule="nonzero" fill="#797979" stroke="none" />
</svg>