<?xml version="1.0" encoding="utf-8"?>
<svg version="1.1" xmlns:xlink="http://www.w3.org/1999/xlink" width="12px" height="12px" viewBox="96 75.5  12 12" xmlns="http://www.w3.org/2000/svg">
  <path d="M 102 75.5  C 105.36 75.5  108 78.14  108 81.5  C 108 84.86  105.36 87.5  102 87.5  C 98.64 87.5  96 84.86  96 81.5  C 96 78.14  98.64 75.5  102 75.5  Z " fill-rule="nonzero" fill="#ffffff" stroke="none" />
  <path d="M 102 76  C 105.08 76  107.5 78.42  107.5 81.5  C 107.5 84.58  105.08 87  102 87  C 98.92 87  96.5 84.58  96.5 81.5  C 96.5 78.42  98.92 76  102 76  Z " stroke-width="1" stroke="#797979" fill="none" />
  <path d="M 102 84.5  C 100.32 84.5  99 83.18  99 81.5  C 99 79.82  100.32 78.5  102 78.5  C 103.68 78.5  105 79.82  105 81.5  C 105 83.18  103.68 84.5  102 84.5  " fill-rule="nonzero" fill="#797979" stroke="none" />
</svg>