<?xml version="1.0" encoding="utf-8"?>
<svg version="1.1" xmlns:xlink="http://www.w3.org/1999/xlink" width="12px" height="12px" viewBox="476 46.5  12 12" xmlns="http://www.w3.org/2000/svg">
  <path d="M 482 46.5  C 485.36 46.5  488 49.14  488 52.5  C 488 55.86  485.36 58.5  482 58.5  C 478.64 58.5  476 55.86  476 52.5  C 476 49.14  478.64 46.5  482 46.5  Z " fill-rule="nonzero" fill="#f0f0f0" stroke="none" />
  <path d="M 482 47  C 485.08 47  487.5 49.42  487.5 52.5  C 487.5 55.58  485.08 58  482 58  C 478.92 58  476.5 55.58  476.5 52.5  C 476.5 49.42  478.92 47  482 47  Z " stroke-width="1" stroke="#797979" fill="none" />
  <path d="M 482 55.5  C 480.32 55.5  479 54.18  479 52.5  C 479 50.82  480.32 49.5  482 49.5  C 483.68 49.5  485 50.82  485 52.5  C 485 54.18  483.68 55.5  482 55.5  " fill-rule="nonzero" fill="#797979" stroke="none" />
</svg>