<?xml version="1.0" encoding="utf-8"?>
<svg version="1.1" xmlns:xlink="http://www.w3.org/1999/xlink" width="12px" height="12px" viewBox="280 75.5  12 12" xmlns="http://www.w3.org/2000/svg">
  <path d="M 286 75.5  C 289.36 75.5  292 78.14  292 81.5  C 292 84.86  289.36 87.5  286 87.5  C 282.64 87.5  280 84.86  280 81.5  C 280 78.14  282.64 75.5  286 75.5  Z " fill-rule="nonzero" fill="#f0f0f0" stroke="none" />
  <path d="M 286 76  C 289.08 76  291.5 78.42  291.5 81.5  C 291.5 84.58  289.08 87  286 87  C 282.92 87  280.5 84.58  280.5 81.5  C 280.5 78.42  282.92 76  286 76  Z " stroke-width="1" stroke="#797979" fill="none" />
  <path d="M 286 84.5  C 284.32 84.5  283 83.18  283 81.5  C 283 79.82  284.32 78.5  286 78.5  C 287.68 78.5  289 79.82  289 81.5  C 289 83.18  287.68 84.5  286 84.5  " fill-rule="nonzero" fill="#797979" stroke="none" />
</svg>