<?xml version="1.0" encoding="utf-8"?>
<svg version="1.1" xmlns:xlink="http://www.w3.org/1999/xlink" width="12px" height="12px" viewBox="476 75.5  12 12" xmlns="http://www.w3.org/2000/svg">
  <path d="M 482 75.5  C 485.36 75.5  488 78.14  488 81.5  C 488 84.86  485.36 87.5  482 87.5  C 478.64 87.5  476 84.86  476 81.5  C 476 78.14  478.64 75.5  482 75.5  Z " fill-rule="nonzero" fill="#ffffff" stroke="none" />
  <path d="M 482 76  C 485.08 76  487.5 78.42  487.5 81.5  C 487.5 84.58  485.08 87  482 87  C 478.92 87  476.5 84.58  476.5 81.5  C 476.5 78.42  478.92 76  482 76  Z " stroke-width="1" stroke="#797979" fill="none" />
  <path d="M 482 84.5  C 480.32 84.5  479 83.18  479 81.5  C 479 79.82  480.32 78.5  482 78.5  C 483.68 78.5  485 79.82  485 81.5  C 485 83.18  483.68 84.5  482 84.5  " fill-rule="nonzero" fill="#797979" stroke="none" />
</svg>