<?xml version="1.0" encoding="utf-8"?>
<svg version="1.1" xmlns:xlink="http://www.w3.org/1999/xlink" width="12px" height="12px" viewBox="96 17.5  12 12" xmlns="http://www.w3.org/2000/svg">
  <path d="M 102 17.5  C 105.36 17.5  108 20.14  108 23.5  C 108 26.86  105.36 29.5  102 29.5  C 98.64 29.5  96 26.86  96 23.5  C 96 20.14  98.64 17.5  102 17.5  Z " fill-rule="nonzero" fill="#ffffff" stroke="none" />
  <path d="M 102 18  C 105.08 18  107.5 20.42  107.5 23.5  C 107.5 26.58  105.08 29  102 29  C 98.92 29  96.5 26.58  96.5 23.5  C 96.5 20.42  98.92 18  102 18  Z " stroke-width="1" stroke="#797979" fill="none" />
  <path d="M 102 26.5  C 100.32 26.5  99 25.18  99 23.5  C 99 21.82  100.32 20.5  102 20.5  C 103.68 20.5  105 21.82  105 23.5  C 105 25.18  103.68 26.5  102 26.5  " fill-rule="nonzero" fill="#797979" stroke="none" />
</svg>