<?xml version="1.0" encoding="utf-8"?>
<svg version="1.1" xmlns:xlink="http://www.w3.org/1999/xlink" width="12px" height="12px" viewBox="278 17.5  12 12" xmlns="http://www.w3.org/2000/svg">
  <path d="M 284 17.5  C 287.36 17.5  290 20.14  290 23.5  C 290 26.86  287.36 29.5  284 29.5  C 280.64 29.5  278 26.86  278 23.5  C 278 20.14  280.64 17.5  284 17.5  Z " fill-rule="nonzero" fill="#f0f0f0" stroke="none" />
  <path d="M 284 18  C 287.08 18  289.5 20.42  289.5 23.5  C 289.5 26.58  287.08 29  284 29  C 280.92 29  278.5 26.58  278.5 23.5  C 278.5 20.42  280.92 18  284 18  Z " stroke-width="1" stroke="#797979" fill="none" />
  <path d="M 284 26.5  C 282.32 26.5  281 25.18  281 23.5  C 281 21.82  282.32 20.5  284 20.5  C 285.68 20.5  287 21.82  287 23.5  C 287 25.18  285.68 26.5  284 26.5  " fill-rule="nonzero" fill="#797979" stroke="none" />
</svg>