<?xml version="1.0" encoding="utf-8"?>
<svg version="1.1" xmlns:xlink="http://www.w3.org/1999/xlink" width="12px" height="12px" viewBox="486 17.5  12 12" xmlns="http://www.w3.org/2000/svg">
  <path d="M 492 17.5  C 495.36 17.5  498 20.14  498 23.5  C 498 26.86  495.36 29.5  492 29.5  C 488.64 29.5  486 26.86  486 23.5  C 486 20.14  488.64 17.5  492 17.5  Z " fill-rule="nonzero" fill="#f0f0f0" stroke="none" />
  <path d="M 492 18  C 495.08 18  497.5 20.42  497.5 23.5  C 497.5 26.58  495.08 29  492 29  C 488.92 29  486.5 26.58  486.5 23.5  C 486.5 20.42  488.92 18  492 18  Z " stroke-width="1" stroke="#797979" fill="none" />
  <path d="M 492 26.5  C 490.32 26.5  489 25.18  489 23.5  C 489 21.82  490.32 20.5  492 20.5  C 493.68 20.5  495 21.82  495 23.5  C 495 25.18  493.68 26.5  492 26.5  " fill-rule="nonzero" fill="#797979" stroke="none" />
</svg>