<?xml version="1.0" encoding="utf-8"?>
<svg version="1.1" xmlns:xlink="http://www.w3.org/1999/xlink" width="12px" height="12px" viewBox="487 73.5  12 12" xmlns="http://www.w3.org/2000/svg">
  <path d="M 493 73.5  C 496.36 73.5  499 76.14  499 79.5  C 499 82.86  496.36 85.5  493 85.5  C 489.64 85.5  487 82.86  487 79.5  C 487 76.14  489.64 73.5  493 73.5  Z " fill-rule="nonzero" fill="#ffffff" stroke="none" />
  <path d="M 493 74  C 496.08 74  498.5 76.42  498.5 79.5  C 498.5 82.58  496.08 85  493 85  C 489.92 85  487.5 82.58  487.5 79.5  C 487.5 76.42  489.92 74  493 74  Z " stroke-width="1" stroke="#797979" fill="none" />
  <path d="M 493 82.5  C 491.32 82.5  490 81.18  490 79.5  C 490 77.82  491.32 76.5  493 76.5  C 494.68 76.5  496 77.82  496 79.5  C 496 81.18  494.68 82.5  493 82.5  " fill-rule="nonzero" fill="#797979" stroke="none" />
</svg>