<?xml version="1.0" encoding="utf-8"?>
<svg version="1.1" xmlns:xlink="http://www.w3.org/1999/xlink" width="12px" height="12px" viewBox="268 46.5  12 12" xmlns="http://www.w3.org/2000/svg">
  <path d="M 274 46.5  C 277.36 46.5  280 49.14  280 52.5  C 280 55.86  277.36 58.5  274 58.5  C 270.64 58.5  268 55.86  268 52.5  C 268 49.14  270.64 46.5  274 46.5  Z " fill-rule="nonzero" fill="#f0f0f0" stroke="none" />
  <path d="M 274 47  C 277.08 47  279.5 49.42  279.5 52.5  C 279.5 55.58  277.08 58  274 58  C 270.92 58  268.5 55.58  268.5 52.5  C 268.5 49.42  270.92 47  274 47  Z " stroke-width="1" stroke="#797979" fill="none" />
  <path d="M 274 55.5  C 272.32 55.5  271 54.18  271 52.5  C 271 50.82  272.32 49.5  274 49.5  C 275.68 49.5  277 50.82  277 52.5  C 277 54.18  275.68 55.5  274 55.5  " fill-rule="nonzero" fill="#797979" stroke="none" />
</svg>