<?xml version="1.0" encoding="utf-8"?>
<svg version="1.1" xmlns:xlink="http://www.w3.org/1999/xlink" width="12px" height="12px" viewBox="299 80.5  12 12" xmlns="http://www.w3.org/2000/svg">
  <path d="M 305 80.5  C 308.36 80.5  311 83.14  311 86.5  C 311 89.86  308.36 92.5  305 92.5  C 301.64 92.5  299 89.86  299 86.5  C 299 83.14  301.64 80.5  305 80.5  Z " fill-rule="nonzero" fill="#ffffff" stroke="none" />
  <path d="M 305 81  C 308.08 81  310.5 83.42  310.5 86.5  C 310.5 89.58  308.08 92  305 92  C 301.92 92  299.5 89.58  299.5 86.5  C 299.5 83.42  301.92 81  305 81  Z " stroke-width="1" stroke="#797979" fill="none" />
  <path d="M 305 89.5  C 303.32 89.5  302 88.18  302 86.5  C 302 84.82  303.32 83.5  305 83.5  C 306.68 83.5  308 84.82  308 86.5  C 308 88.18  306.68 89.5  305 89.5  " fill-rule="nonzero" fill="#797979" stroke="none" />
</svg>