<?xml version="1.0" encoding="utf-8"?>
<svg version="1.1" xmlns:xlink="http://www.w3.org/1999/xlink" width="12px" height="12px" viewBox="73 75.5  12 12" xmlns="http://www.w3.org/2000/svg">
  <path d="M 79 75.5  C 82.36 75.5  85 78.14  85 81.5  C 85 84.86  82.36 87.5  79 87.5  C 75.64 87.5  73 84.86  73 81.5  C 73 78.14  75.64 75.5  79 75.5  Z " fill-rule="nonzero" fill="#ffffff" stroke="none" />
  <path d="M 79 76  C 82.08 76  84.5 78.42  84.5 81.5  C 84.5 84.58  82.08 87  79 87  C 75.92 87  73.5 84.58  73.5 81.5  C 73.5 78.42  75.92 76  79 76  Z " stroke-width="1" stroke="#797979" fill="none" />
  <path d="M 79 84.5  C 77.32 84.5  76 83.18  76 81.5  C 76 79.82  77.32 78.5  79 78.5  C 80.68 78.5  82 79.82  82 81.5  C 82 83.18  80.68 84.5  79 84.5  " fill-rule="nonzero" fill="#797979" stroke="none" />
</svg>