<?xml version="1.0" encoding="utf-8"?>
<svg version="1.1" xmlns:xlink="http://www.w3.org/1999/xlink" width="12px" height="12px" viewBox="73 46.5  12 12" xmlns="http://www.w3.org/2000/svg">
  <path d="M 79 46.5  C 82.36 46.5  85 49.14  85 52.5  C 85 55.86  82.36 58.5  79 58.5  C 75.64 58.5  73 55.86  73 52.5  C 73 49.14  75.64 46.5  79 46.5  Z " fill-rule="nonzero" fill="#ffffff" stroke="none" />
  <path d="M 79 47  C 82.08 47  84.5 49.42  84.5 52.5  C 84.5 55.58  82.08 58  79 58  C 75.92 58  73.5 55.58  73.5 52.5  C 73.5 49.42  75.92 47  79 47  Z " stroke-width="1" stroke="#797979" fill="none" />
  <path d="M 79 55.5  C 77.32 55.5  76 54.18  76 52.5  C 76 50.82  77.32 49.5  79 49.5  C 80.68 49.5  82 50.82  82 52.5  C 82 54.18  80.68 55.5  79 55.5  " fill-rule="nonzero" fill="#797979" stroke="none" />
</svg>