<?xml version="1.0" encoding="utf-8"?>
<svg version="1.1" xmlns:xlink="http://www.w3.org/1999/xlink" width="12px" height="12px" viewBox="479 46.5  12 12" xmlns="http://www.w3.org/2000/svg">
  <path d="M 485 46.5  C 488.36 46.5  491 49.14  491 52.5  C 491 55.86  488.36 58.5  485 58.5  C 481.64 58.5  479 55.86  479 52.5  C 479 49.14  481.64 46.5  485 46.5  Z " fill-rule="nonzero" fill="#f0f0f0" stroke="none" />
  <path d="M 485 47  C 488.08 47  490.5 49.42  490.5 52.5  C 490.5 55.58  488.08 58  485 58  C 481.92 58  479.5 55.58  479.5 52.5  C 479.5 49.42  481.92 47  485 47  Z " stroke-width="1" stroke="#797979" fill="none" />
  <path d="M 485 55.5  C 483.32 55.5  482 54.18  482 52.5  C 482 50.82  483.32 49.5  485 49.5  C 486.68 49.5  488 50.82  488 52.5  C 488 54.18  486.68 55.5  485 55.5  " fill-rule="nonzero" fill="#797979" stroke="none" />
</svg>