<?xml version="1.0" encoding="utf-8"?>
<svg version="1.1" xmlns:xlink="http://www.w3.org/1999/xlink" width="12px" height="12px" viewBox="299 54.5  12 12" xmlns="http://www.w3.org/2000/svg">
  <path d="M 305 54.5  C 308.36 54.5  311 57.14  311 60.5  C 311 63.86  308.36 66.5  305 66.5  C 301.64 66.5  299 63.86  299 60.5  C 299 57.14  301.64 54.5  305 54.5  Z " fill-rule="nonzero" fill="#f0f0f0" stroke="none" />
  <path d="M 305 55  C 308.08 55  310.5 57.42  310.5 60.5  C 310.5 63.58  308.08 66  305 66  C 301.92 66  299.5 63.58  299.5 60.5  C 299.5 57.42  301.92 55  305 55  Z " stroke-width="1" stroke="#797979" fill="none" />
  <path d="M 305 63.5  C 303.32 63.5  302 62.18  302 60.5  C 302 58.82  303.32 57.5  305 57.5  C 306.68 57.5  308 58.82  308 60.5  C 308 62.18  306.68 63.5  305 63.5  " fill-rule="nonzero" fill="#797979" stroke="none" />
</svg>