<?xml version="1.0" encoding="utf-8"?>
<svg version="1.1" xmlns:xlink="http://www.w3.org/1999/xlink" width="12px" height="12px" viewBox="256 46.5  12 12" xmlns="http://www.w3.org/2000/svg">
  <path d="M 262 46.5  C 265.36 46.5  268 49.14  268 52.5  C 268 55.86  265.36 58.5  262 58.5  C 258.64 58.5  256 55.86  256 52.5  C 256 49.14  258.64 46.5  262 46.5  Z " fill-rule="nonzero" fill="#ffffff" stroke="none" />
  <path d="M 262 47  C 265.08 47  267.5 49.42  267.5 52.5  C 267.5 55.58  265.08 58  262 58  C 258.92 58  256.5 55.58  256.5 52.5  C 256.5 49.42  258.92 47  262 47  Z " stroke-width="1" stroke="#797979" fill="none" />
  <path d="M 262 55.5  C 260.32 55.5  259 54.18  259 52.5  C 259 50.82  260.32 49.5  262 49.5  C 263.68 49.5  265 50.82  265 52.5  C 265 54.18  263.68 55.5  262 55.5  " fill-rule="nonzero" fill="#797979" stroke="none" />
</svg>