<?xml version="1.0" encoding="utf-8"?>
<svg version="1.1" xmlns:xlink="http://www.w3.org/1999/xlink" width="12px" height="12px" viewBox="258 17.5  12 12" xmlns="http://www.w3.org/2000/svg">
  <path d="M 264 17.5  C 267.36 17.5  270 20.14  270 23.5  C 270 26.86  267.36 29.5  264 29.5  C 260.64 29.5  258 26.86  258 23.5  C 258 20.14  260.64 17.5  264 17.5  Z " fill-rule="nonzero" fill="#ffffff" stroke="none" />
  <path d="M 264 18  C 267.08 18  269.5 20.42  269.5 23.5  C 269.5 26.58  267.08 29  264 29  C 260.92 29  258.5 26.58  258.5 23.5  C 258.5 20.42  260.92 18  264 18  Z " stroke-width="1" stroke="#797979" fill="none" />
  <path d="M 264 26.5  C 262.32 26.5  261 25.18  261 23.5  C 261 21.82  262.32 20.5  264 20.5  C 265.68 20.5  267 21.82  267 23.5  C 267 25.18  265.68 26.5  264 26.5  " fill-rule="nonzero" fill="#797979" stroke="none" />
</svg>