<?xml version="1.0" encoding="utf-8"?>
<svg version="1.1" xmlns:xlink="http://www.w3.org/1999/xlink" width="12px" height="12px" viewBox="258 46.5  12 12" xmlns="http://www.w3.org/2000/svg">
  <path d="M 264 46.5  C 267.36 46.5  270 49.14  270 52.5  C 270 55.86  267.36 58.5  264 58.5  C 260.64 58.5  258 55.86  258 52.5  C 258 49.14  260.64 46.5  264 46.5  Z " fill-rule="nonzero" fill="#ffffff" stroke="none" />
  <path d="M 264 47  C 267.08 47  269.5 49.42  269.5 52.5  C 269.5 55.58  267.08 58  264 58  C 260.92 58  258.5 55.58  258.5 52.5  C 258.5 49.42  260.92 47  264 47  Z " stroke-width="1" stroke="#797979" fill="none" />
  <path d="M 264 55.5  C 262.32 55.5  261 54.18  261 52.5  C 261 50.82  262.32 49.5  264 49.5  C 265.68 49.5  267 50.82  267 52.5  C 267 54.18  265.68 55.5  264 55.5  " fill-rule="nonzero" fill="#797979" stroke="none" />
</svg>