<?xml version="1.0" encoding="utf-8"?>
<svg version="1.1" xmlns:xlink="http://www.w3.org/1999/xlink" width="12px" height="12px" viewBox="479 75.5  12 12" xmlns="http://www.w3.org/2000/svg">
  <path d="M 485 75.5  C 488.36 75.5  491 78.14  491 81.5  C 491 84.86  488.36 87.5  485 87.5  C 481.64 87.5  479 84.86  479 81.5  C 479 78.14  481.64 75.5  485 75.5  Z " fill-rule="nonzero" fill="#ffffff" stroke="none" />
  <path d="M 485 76  C 488.08 76  490.5 78.42  490.5 81.5  C 490.5 84.58  488.08 87  485 87  C 481.92 87  479.5 84.58  479.5 81.5  C 479.5 78.42  481.92 76  485 76  Z " stroke-width="1" stroke="#797979" fill="none" />
  <path d="M 485 84.5  C 483.32 84.5  482 83.18  482 81.5  C 482 79.82  483.32 78.5  485 78.5  C 486.68 78.5  488 79.82  488 81.5  C 488 83.18  486.68 84.5  485 84.5  " fill-rule="nonzero" fill="#797979" stroke="none" />
</svg>