<?xml version="1.0" encoding="utf-8"?>
<svg version="1.1" xmlns:xlink="http://www.w3.org/1999/xlink" width="12px" height="12px" viewBox="256 17.5  12 12" xmlns="http://www.w3.org/2000/svg">
  <path d="M 262 17.5  C 265.36 17.5  268 20.14  268 23.5  C 268 26.86  265.36 29.5  262 29.5  C 258.64 29.5  256 26.86  256 23.5  C 256 20.14  258.64 17.5  262 17.5  Z " fill-rule="nonzero" fill="#f0f0f0" stroke="none" />
  <path d="M 262 18  C 265.08 18  267.5 20.42  267.5 23.5  C 267.5 26.58  265.08 29  262 29  C 258.92 29  256.5 26.58  256.5 23.5  C 256.5 20.42  258.92 18  262 18  Z " stroke-width="1" stroke="#797979" fill="none" />
  <path d="M 262 26.5  C 260.32 26.5  259 25.18  259 23.5  C 259 21.82  260.32 20.5  262 20.5  C 263.68 20.5  265 21.82  265 23.5  C 265 25.18  263.68 26.5  262 26.5  " fill-rule="nonzero" fill="#797979" stroke="none" />
</svg>