<?xml version="1.0" encoding="utf-8"?>
<svg version="1.1" xmlns:xlink="http://www.w3.org/1999/xlink" width="12px" height="12px" viewBox="448 17.5  12 12" xmlns="http://www.w3.org/2000/svg">
  <path d="M 454 17.5  C 457.36 17.5  460 20.14  460 23.5  C 460 26.86  457.36 29.5  454 29.5  C 450.64 29.5  448 26.86  448 23.5  C 448 20.14  450.64 17.5  454 17.5  Z " fill-rule="nonzero" fill="#ffffff" stroke="none" />
  <path d="M 454 18  C 457.08 18  459.5 20.42  459.5 23.5  C 459.5 26.58  457.08 29  454 29  C 450.92 29  448.5 26.58  448.5 23.5  C 448.5 20.42  450.92 18  454 18  Z " stroke-width="1" stroke="#797979" fill="none" />
  <path d="M 454 26.5  C 452.32 26.5  451 25.18  451 23.5  C 451 21.82  452.32 20.5  454 20.5  C 455.68 20.5  457 21.82  457 23.5  C 457 25.18  455.68 26.5  454 26.5  " fill-rule="nonzero" fill="#797979" stroke="none" />
</svg>