<?xml version="1.0" encoding="utf-8"?>
<svg version="1.1" xmlns:xlink="http://www.w3.org/1999/xlink" width="12px" height="12px" viewBox="448 46.5  12 12" xmlns="http://www.w3.org/2000/svg">
  <path d="M 454 46.5  C 457.36 46.5  460 49.14  460 52.5  C 460 55.86  457.36 58.5  454 58.5  C 450.64 58.5  448 55.86  448 52.5  C 448 49.14  450.64 46.5  454 46.5  Z " fill-rule="nonzero" fill="#f0f0f0" stroke="none" />
  <path d="M 454 47  C 457.08 47  459.5 49.42  459.5 52.5  C 459.5 55.58  457.08 58  454 58  C 450.92 58  448.5 55.58  448.5 52.5  C 448.5 49.42  450.92 47  454 47  Z " stroke-width="1" stroke="#797979" fill="none" />
  <path d="M 454 55.5  C 452.32 55.5  451 54.18  451 52.5  C 451 50.82  452.32 49.5  454 49.5  C 455.68 49.5  457 50.82  457 52.5  C 457 54.18  455.68 55.5  454 55.5  " fill-rule="nonzero" fill="#797979" stroke="none" />
</svg>