<?xml version="1.0" encoding="utf-8"?>
<svg version="1.1" xmlns:xlink="http://www.w3.org/1999/xlink" width="12px" height="12px" viewBox="27 141.5  12 12" xmlns="http://www.w3.org/2000/svg">
  <path d="M 33 141.5  C 36.36 141.5  39 144.14  39 147.5  C 39 150.86  36.36 153.5  33 153.5  C 29.64 153.5  27 150.86  27 147.5  C 27 144.14  29.64 141.5  33 141.5  Z " fill-rule="nonzero" fill="#f0f0f0" stroke="none" />
  <path d="M 33 142  C 36.08 142  38.5 144.42  38.5 147.5  C 38.5 150.58  36.08 153  33 153  C 29.92 153  27.5 150.58  27.5 147.5  C 27.5 144.42  29.92 142  33 142  Z " stroke-width="1" stroke="#797979" fill="none" />
  <path d="M 33 150.5  C 31.32 150.5  30 149.18  30 147.5  C 30 145.82  31.32 144.5  33 144.5  C 34.68 144.5  36 145.82  36 147.5  C 36 149.18  34.68 150.5  33 150.5  " fill-rule="nonzero" fill="#797979" stroke="none" />
</svg>