<?xml version="1.0" encoding="utf-8"?>
<svg version="1.1" xmlns:xlink="http://www.w3.org/1999/xlink" width="12px" height="12px" viewBox="250 15.5  12 12" xmlns="http://www.w3.org/2000/svg">
  <path d="M 256 15.5  C 259.36 15.5  262 18.14  262 21.5  C 262 24.86  259.36 27.5  256 27.5  C 252.64 27.5  250 24.86  250 21.5  C 250 18.14  252.64 15.5  256 15.5  Z " fill-rule="nonzero" fill="#ffffff" stroke="none" />
  <path d="M 256 16  C 259.08 16  261.5 18.42  261.5 21.5  C 261.5 24.58  259.08 27  256 27  C 252.92 27  250.5 24.58  250.5 21.5  C 250.5 18.42  252.92 16  256 16  Z " stroke-width="1" stroke="#797979" fill="none" />
  <path d="M 256 24.5  C 254.32 24.5  253 23.18  253 21.5  C 253 19.82  254.32 18.5  256 18.5  C 257.68 18.5  259 19.82  259 21.5  C 259 23.18  257.68 24.5  256 24.5  " fill-rule="nonzero" fill="#797979" stroke="none" />
</svg>