<?xml version="1.0" encoding="utf-8"?>
<svg version="1.1" xmlns:xlink="http://www.w3.org/1999/xlink" width="12px" height="12px" viewBox="82 15.5  12 12" xmlns="http://www.w3.org/2000/svg">
  <path d="M 88 15.5  C 91.36 15.5  94 18.14  94 21.5  C 94 24.86  91.36 27.5  88 27.5  C 84.64 27.5  82 24.86  82 21.5  C 82 18.14  84.64 15.5  88 15.5  Z " fill-rule="nonzero" fill="#f0f0f0" stroke="none" />
  <path d="M 88 16  C 91.08 16  93.5 18.42  93.5 21.5  C 93.5 24.58  91.08 27  88 27  C 84.92 27  82.5 24.58  82.5 21.5  C 82.5 18.42  84.92 16  88 16  Z " stroke-width="1" stroke="#797979" fill="none" />
  <path d="M 88 24.5  C 86.32 24.5  85 23.18  85 21.5  C 85 19.82  86.32 18.5  88 18.5  C 89.68 18.5  91 19.82  91 21.5  C 91 23.18  89.68 24.5  88 24.5  " fill-rule="nonzero" fill="#797979" stroke="none" />
</svg>