<?xml version="1.0" encoding="utf-8"?>
<svg version="1.1" xmlns:xlink="http://www.w3.org/1999/xlink" width="12px" height="12px" viewBox="443 15.5  12 12" xmlns="http://www.w3.org/2000/svg">
  <path d="M 449 15.5  C 452.36 15.5  455 18.14  455 21.5  C 455 24.86  452.36 27.5  449 27.5  C 445.64 27.5  443 24.86  443 21.5  C 443 18.14  445.64 15.5  449 15.5  Z " fill-rule="nonzero" fill="#f0f0f0" stroke="none" />
  <path d="M 449 16  C 452.08 16  454.5 18.42  454.5 21.5  C 454.5 24.58  452.08 27  449 27  C 445.92 27  443.5 24.58  443.5 21.5  C 443.5 18.42  445.92 16  449 16  Z " stroke-width="1" stroke="#797979" fill="none" />
  <path d="M 449 24.5  C 447.32 24.5  446 23.18  446 21.5  C 446 19.82  447.32 18.5  449 18.5  C 450.68 18.5  452 19.82  452 21.5  C 452 23.18  450.68 24.5  449 24.5  " fill-rule="nonzero" fill="#797979" stroke="none" />
</svg>