<?xml version="1.0" encoding="utf-8"?>
<svg version="1.1" xmlns:xlink="http://www.w3.org/1999/xlink" width="12px" height="12px" viewBox="244 73.5  12 12" xmlns="http://www.w3.org/2000/svg">
  <path d="M 250 73.5  C 253.36 73.5  256 76.14  256 79.5  C 256 82.86  253.36 85.5  250 85.5  C 246.64 85.5  244 82.86  244 79.5  C 244 76.14  246.64 73.5  250 73.5  Z " fill-rule="nonzero" fill="#f0f0f0" stroke="none" />
  <path d="M 250 74  C 253.08 74  255.5 76.42  255.5 79.5  C 255.5 82.58  253.08 85  250 85  C 246.92 85  244.5 82.58  244.5 79.5  C 244.5 76.42  246.92 74  250 74  Z " stroke-width="1" stroke="#797979" fill="none" />
  <path d="M 250 82.5  C 248.32 82.5  247 81.18  247 79.5  C 247 77.82  248.32 76.5  250 76.5  C 251.68 76.5  253 77.82  253 79.5  C 253 81.18  251.68 82.5  250 82.5  " fill-rule="nonzero" fill="#797979" stroke="none" />
</svg>