<?xml version="1.0" encoding="utf-8"?>
<svg version="1.1" xmlns:xlink="http://www.w3.org/1999/xlink" width="12px" height="12px" viewBox="71 73.5  12 12" xmlns="http://www.w3.org/2000/svg">
  <path d="M 77 73.5  C 80.36 73.5  83 76.14  83 79.5  C 83 82.86  80.36 85.5  77 85.5  C 73.64 85.5  71 82.86  71 79.5  C 71 76.14  73.64 73.5  77 73.5  Z " fill-rule="nonzero" fill="#f0f0f0" stroke="none" />
  <path d="M 77 74  C 80.08 74  82.5 76.42  82.5 79.5  C 82.5 82.58  80.08 85  77 85  C 73.92 85  71.5 82.58  71.5 79.5  C 71.5 76.42  73.92 74  77 74  Z " stroke-width="1" stroke="#797979" fill="none" />
  <path d="M 77 82.5  C 75.32 82.5  74 81.18  74 79.5  C 74 77.82  75.32 76.5  77 76.5  C 78.68 76.5  80 77.82  80 79.5  C 80 81.18  78.68 82.5  77 82.5  " fill-rule="nonzero" fill="#797979" stroke="none" />
</svg>