<?xml version="1.0" encoding="utf-8"?>
<svg version="1.1" xmlns:xlink="http://www.w3.org/1999/xlink" width="12px" height="12px" viewBox="82 19.5  12 12" xmlns="http://www.w3.org/2000/svg">
  <path d="M 88 19.5  C 91.36 19.5  94 22.14  94 25.5  C 94 28.86  91.36 31.5  88 31.5  C 84.64 31.5  82 28.86  82 25.5  C 82 22.14  84.64 19.5  88 19.5  Z " fill-rule="nonzero" fill="#f0f0f0" stroke="none" />
  <path d="M 88 20  C 91.08 20  93.5 22.42  93.5 25.5  C 93.5 28.58  91.08 31  88 31  C 84.92 31  82.5 28.58  82.5 25.5  C 82.5 22.42  84.92 20  88 20  Z " stroke-width="1" stroke="#797979" fill="none" />
  <path d="M 88 28.5  C 86.32 28.5  85 27.18  85 25.5  C 85 23.82  86.32 22.5  88 22.5  C 89.68 22.5  91 23.82  91 25.5  C 91 27.18  89.68 28.5  88 28.5  " fill-rule="nonzero" fill="#797979" stroke="none" />
</svg>