<?xml version="1.0" encoding="utf-8"?>
<svg version="1.1" xmlns:xlink="http://www.w3.org/1999/xlink" width="12px" height="12px" viewBox="241 12.5  12 12" xmlns="http://www.w3.org/2000/svg">
  <path d="M 247 12.5  C 250.36 12.5  253 15.14  253 18.5  C 253 21.86  250.36 24.5  247 24.5  C 243.64 24.5  241 21.86  241 18.5  C 241 15.14  243.64 12.5  247 12.5  Z " fill-rule="nonzero" fill="#ffffff" stroke="none" />
  <path d="M 247 13  C 250.08 13  252.5 15.42  252.5 18.5  C 252.5 21.58  250.08 24  247 24  C 243.92 24  241.5 21.58  241.5 18.5  C 241.5 15.42  243.92 13  247 13  Z " stroke-width="1" stroke="#797979" fill="none" />
  <path d="M 247 21.5  C 245.32 21.5  244 20.18  244 18.5  C 244 16.82  245.32 15.5  247 15.5  C 248.68 15.5  250 16.82  250 18.5  C 250 20.18  248.68 21.5  247 21.5  " fill-rule="nonzero" fill="#797979" stroke="none" />
</svg>