<?xml version="1.0" encoding="utf-8"?>
<svg version="1.1" xmlns:xlink="http://www.w3.org/1999/xlink" width="12px" height="12px" viewBox="60 78.5  12 12" xmlns="http://www.w3.org/2000/svg">
  <path d="M 66 78.5  C 69.36 78.5  72 81.14  72 84.5  C 72 87.86  69.36 90.5  66 90.5  C 62.64 90.5  60 87.86  60 84.5  C 60 81.14  62.64 78.5  66 78.5  Z " fill-rule="nonzero" fill="#ffffff" stroke="none" />
  <path d="M 66 79  C 69.08 79  71.5 81.42  71.5 84.5  C 71.5 87.58  69.08 90  66 90  C 62.92 90  60.5 87.58  60.5 84.5  C 60.5 81.42  62.92 79  66 79  Z " stroke-width="1" stroke="#797979" fill="none" />
  <path d="M 66 87.5  C 64.32 87.5  63 86.18  63 84.5  C 63 82.82  64.32 81.5  66 81.5  C 67.68 81.5  69 82.82  69 84.5  C 69 86.18  67.68 87.5  66 87.5  " fill-rule="nonzero" fill="#797979" stroke="none" />
</svg>