<?xml version="1.0" encoding="utf-8"?>
<svg version="1.1" xmlns:xlink="http://www.w3.org/1999/xlink" width="12px" height="12px" viewBox="430 14.5  12 12" xmlns="http://www.w3.org/2000/svg">
  <path d="M 436 14.5  C 439.36 14.5  442 17.14  442 20.5  C 442 23.86  439.36 26.5  436 26.5  C 432.64 26.5  430 23.86  430 20.5  C 430 17.14  432.64 14.5  436 14.5  Z " fill-rule="nonzero" fill="#ffffff" stroke="none" />
  <path d="M 436 15  C 439.08 15  441.5 17.42  441.5 20.5  C 441.5 23.58  439.08 26  436 26  C 432.92 26  430.5 23.58  430.5 20.5  C 430.5 17.42  432.92 15  436 15  Z " stroke-width="1" stroke="#797979" fill="none" />
  <path d="M 436 23.5  C 434.32 23.5  433 22.18  433 20.5  C 433 18.82  434.32 17.5  436 17.5  C 437.68 17.5  439 18.82  439 20.5  C 439 22.18  437.68 23.5  436 23.5  " fill-rule="nonzero" fill="#797979" stroke="none" />
</svg>