<?xml version="1.0" encoding="utf-8"?>
<svg version="1.1" xmlns:xlink="http://www.w3.org/1999/xlink" width="12px" height="12px" viewBox="61 47.5  12 12" xmlns="http://www.w3.org/2000/svg">
  <path d="M 67 47.5  C 70.36 47.5  73 50.14  73 53.5  C 73 56.86  70.36 59.5  67 59.5  C 63.64 59.5  61 56.86  61 53.5  C 61 50.14  63.64 47.5  67 47.5  Z " fill-rule="nonzero" fill="#f0f0f0" stroke="none" />
  <path d="M 67 48  C 70.08 48  72.5 50.42  72.5 53.5  C 72.5 56.58  70.08 59  67 59  C 63.92 59  61.5 56.58  61.5 53.5  C 61.5 50.42  63.92 48  67 48  Z " stroke-width="1" stroke="#797979" fill="none" />
  <path d="M 67 56.5  C 65.32 56.5  64 55.18  64 53.5  C 64 51.82  65.32 50.5  67 50.5  C 68.68 50.5  70 51.82  70 53.5  C 70 55.18  68.68 56.5  67 56.5  " fill-rule="nonzero" fill="#797979" stroke="none" />
</svg>