<?xml version="1.0" encoding="utf-8"?>
<svg version="1.1" xmlns:xlink="http://www.w3.org/1999/xlink" width="12px" height="12px" viewBox="242 78.5  12 12" xmlns="http://www.w3.org/2000/svg">
  <path d="M 248 78.5  C 251.36 78.5  254 81.14  254 84.5  C 254 87.86  251.36 90.5  248 90.5  C 244.64 90.5  242 87.86  242 84.5  C 242 81.14  244.64 78.5  248 78.5  Z " fill-rule="nonzero" fill="#ffffff" stroke="none" />
  <path d="M 248 79  C 251.08 79  253.5 81.42  253.5 84.5  C 253.5 87.58  251.08 90  248 90  C 244.92 90  242.5 87.58  242.5 84.5  C 242.5 81.42  244.92 79  248 79  Z " stroke-width="1" stroke="#797979" fill="none" />
  <path d="M 248 87.5  C 246.32 87.5  245 86.18  245 84.5  C 245 82.82  246.32 81.5  248 81.5  C 249.68 81.5  251 82.82  251 84.5  C 251 86.18  249.68 87.5  248 87.5  " fill-rule="nonzero" fill="#797979" stroke="none" />
</svg>