<?xml version="1.0" encoding="utf-8"?>
<svg version="1.1" xmlns:xlink="http://www.w3.org/1999/xlink" width="12px" height="12px" viewBox="443 12.5  12 12" xmlns="http://www.w3.org/2000/svg">
  <path d="M 449 12.5  C 452.36 12.5  455 15.14  455 18.5  C 455 21.86  452.36 24.5  449 24.5  C 445.64 24.5  443 21.86  443 18.5  C 443 15.14  445.64 12.5  449 12.5  Z " fill-rule="nonzero" fill="#ffffff" stroke="none" />
  <path d="M 449 13  C 452.08 13  454.5 15.42  454.5 18.5  C 454.5 21.58  452.08 24  449 24  C 445.92 24  443.5 21.58  443.5 18.5  C 443.5 15.42  445.92 13  449 13  Z " stroke-width="1" stroke="#797979" fill="none" />
  <path d="M 449 21.5  C 447.32 21.5  446 20.18  446 18.5  C 446 16.82  447.32 15.5  449 15.5  C 450.68 15.5  452 16.82  452 18.5  C 452 20.18  450.68 21.5  449 21.5  " fill-rule="nonzero" fill="#797979" stroke="none" />
</svg>