<?xml version="1.0" encoding="utf-8"?>
<svg version="1.1" xmlns:xlink="http://www.w3.org/1999/xlink" width="12px" height="12px" viewBox="242 46.5  12 12" xmlns="http://www.w3.org/2000/svg">
  <path d="M 248 46.5  C 251.36 46.5  254 49.14  254 52.5  C 254 55.86  251.36 58.5  248 58.5  C 244.64 58.5  242 55.86  242 52.5  C 242 49.14  244.64 46.5  248 46.5  Z " fill-rule="nonzero" fill="#ffffff" stroke="none" />
  <path d="M 248 47  C 251.08 47  253.5 49.42  253.5 52.5  C 253.5 55.58  251.08 58  248 58  C 244.92 58  242.5 55.58  242.5 52.5  C 242.5 49.42  244.92 47  248 47  Z " stroke-width="1" stroke="#797979" fill="none" />
  <path d="M 248 55.5  C 246.32 55.5  245 54.18  245 52.5  C 245 50.82  246.32 49.5  248 49.5  C 249.68 49.5  251 50.82  251 52.5  C 251 54.18  249.68 55.5  248 55.5  " fill-rule="nonzero" fill="#797979" stroke="none" />
</svg>