<?xml version="1.0" encoding="utf-8"?>
<svg version="1.1" xmlns:xlink="http://www.w3.org/1999/xlink" width="6px" height="10px" xmlns="http://www.w3.org/2000/svg">
  <g transform="matrix(1 0 0 1 -327 -395 )">
    <path d="M 5.80208333333333 4.560546875  C 5.93402777777778 4.68424479166667  6 4.83072916666667  6 5  C 6 5.16927083333333  5.93402777777778 5.31575520833333  5.80208333333333 5.439453125  L 1.13541666666667 9.814453125  C 1.00347222222222 9.93815104166667  0.847222222222222 10  0.666666666666667 10  C 0.486111111111111 10  0.329861111111111 9.93815104166667  0.197916666666667 9.814453125  C 0.0659722222222222 9.69075520833333  0 9.54427083333333  0 9.375  L 0 0.625  C 0 0.455729166666665  0.0659722222222222 0.309244791666665  0.197916666666667 0.185546875  C 0.329861111111111 0.0618489583333326  0.486111111111111 0  0.666666666666667 0  C 0.847222222222222 0  1.00347222222222 0.0618489583333326  1.13541666666667 0.185546875  L 5.80208333333333 4.560546875  Z " fill-rule="nonzero" fill="#ffffff" stroke="none" transform="matrix(1 0 0 1 327 395 )" />
  </g>
</svg>