<?xml version="1.0" encoding="utf-8"?>
<svg version="1.1" xmlns:xlink="http://www.w3.org/1999/xlink" width="14px" height="18px" xmlns="http://www.w3.org/2000/svg">
  <g transform="matrix(1 0 0 1 -799 -243 )">
    <path d="M 9.474609375 8.12109375  C 10.158203125 7.53515625  10.5 6.828125  10.5 6  C 10.5 5.171875  10.158203125 4.46484375  9.474609375 3.87890625  C 8.791015625 3.29296875  7.96614583333333 3  7 3  C 6.03385416666667 3  5.208984375 3.29296875  4.525390625 3.87890625  C 3.841796875 4.46484375  3.5 5.171875  3.5 6  C 3.5 6.828125  3.841796875 7.53515625  4.525390625 8.12109375  C 5.208984375 8.70703125  6.03385416666667 9  7 9  C 7.96614583333333 9  8.791015625 8.70703125  9.474609375 8.12109375  Z M 11.94921875 1.7578125  C 13.31640625 2.9296875  14 4.34375  14 6  C 14 6.8515625  13.849609375 7.55078125  13.548828125 8.09765625  L 8.572265625 17.16796875  C 8.42643229166667 17.42578125  8.2099609375 17.62890625  7.9228515625 17.77734375  C 7.6357421875 17.92578125  7.328125 18  7 18  C 6.671875 18  6.3642578125 17.92578125  6.0771484375 17.77734375  C 5.7900390625 17.62890625  5.578125 17.42578125  5.44140625 17.16796875  L 0.451171875 8.09765625  C 0.150390625 7.55078125  0 6.8515625  0 6  C 0 4.34375  0.68359375 2.9296875  2.05078125 1.7578125  C 3.41796875 0.585937500000001  5.06770833333333 0  7 0  C 8.93229166666667 0  10.58203125 0.585937500000001  11.94921875 1.7578125  Z " fill-rule="nonzero" fill="#1890ff" stroke="none" transform="matrix(1 0 0 1 799 243 )" />
  </g>
</svg>