<?xml version="1.0" encoding="utf-8"?>
<svg version="1.1" xmlns:xlink="http://www.w3.org/1999/xlink" width="14px" height="14px" viewBox="362 356  14 14" xmlns="http://www.w3.org/2000/svg">
  <path d="M 362.5 358  A 1.5 1.5 0 0 1 364 356.5 L 374 356.5  A 1.5 1.5 0 0 1 375.5 358 L 375.5 368  A 1.5 1.5 0 0 1 374 369.5 L 364 369.5  A 1.5 1.5 0 0 1 362.5 368 L 362.5 358  Z " fill-rule="nonzero" fill="#f0f0f0" stroke="none" />
  <path d="M 362.5 358  A 1.5 1.5 0 0 1 364 356.5 L 374 356.5  A 1.5 1.5 0 0 1 375.5 358 L 375.5 368  A 1.5 1.5 0 0 1 374 369.5 L 364 369.5  A 1.5 1.5 0 0 1 362.5 368 L 362.5 358  Z " stroke-width="1" stroke="#797979" fill="none" />
</svg>