<?xml version="1.0" encoding="utf-8"?>
<svg version="1.1" xmlns:xlink="http://www.w3.org/1999/xlink" width="14px" height="14px" viewBox="362 498  14 14" xmlns="http://www.w3.org/2000/svg">
  <path d="M 362.5 500  A 1.5 1.5 0 0 1 364 498.5 L 374 498.5  A 1.5 1.5 0 0 1 375.5 500 L 375.5 510  A 1.5 1.5 0 0 1 374 511.5 L 364 511.5  A 1.5 1.5 0 0 1 362.5 510 L 362.5 500  Z " fill-rule="nonzero" fill="#ffffff" stroke="none" />
  <path d="M 362.5 500  A 1.5 1.5 0 0 1 364 498.5 L 374 498.5  A 1.5 1.5 0 0 1 375.5 500 L 375.5 510  A 1.5 1.5 0 0 1 374 511.5 L 364 511.5  A 1.5 1.5 0 0 1 362.5 510 L 362.5 500  Z " stroke-width="1" stroke="#797979" fill="none" />
  <path d="M 365.5 505.5  L 368.5 508.5  " stroke-width="3" stroke="#797979" fill="none" />
  <path d="M 368.5 508.5  L 373.5 501.5  " stroke-width="3" stroke="#797979" fill="none" />
</svg>