<?xml version="1.0" encoding="utf-8"?>
<svg version="1.1" xmlns:xlink="http://www.w3.org/1999/xlink" width="14px" height="14px" viewBox="362 541  14 14" xmlns="http://www.w3.org/2000/svg">
  <path d="M 362.5 543  A 1.5 1.5 0 0 1 364 541.5 L 374 541.5  A 1.5 1.5 0 0 1 375.5 543 L 375.5 553  A 1.5 1.5 0 0 1 374 554.5 L 364 554.5  A 1.5 1.5 0 0 1 362.5 553 L 362.5 543  Z " fill-rule="nonzero" fill="#ffffff" stroke="none" />
  <path d="M 362.5 543  A 1.5 1.5 0 0 1 364 541.5 L 374 541.5  A 1.5 1.5 0 0 1 375.5 543 L 375.5 553  A 1.5 1.5 0 0 1 374 554.5 L 364 554.5  A 1.5 1.5 0 0 1 362.5 553 L 362.5 543  Z " stroke-width="1" stroke="#797979" fill="none" />
  <path d="M 365.5 548.5  L 368.5 551.5  " stroke-width="3" stroke="#797979" fill="none" />
  <path d="M 368.5 551.5  L 373.5 544.5  " stroke-width="3" stroke="#797979" fill="none" />
</svg>