<?xml version="1.0" encoding="utf-8"?>
<svg version="1.1" xmlns:xlink="http://www.w3.org/1999/xlink" width="14px" height="14px" viewBox="365 191  14 14" xmlns="http://www.w3.org/2000/svg">
  <path d="M 365.5 193  A 1.5 1.5 0 0 1 367 191.5 L 377 191.5  A 1.5 1.5 0 0 1 378.5 193 L 378.5 203  A 1.5 1.5 0 0 1 377 204.5 L 367 204.5  A 1.5 1.5 0 0 1 365.5 203 L 365.5 193  Z " fill-rule="nonzero" fill="#f0f0f0" stroke="none" />
  <path d="M 365.5 193  A 1.5 1.5 0 0 1 367 191.5 L 377 191.5  A 1.5 1.5 0 0 1 378.5 193 L 378.5 203  A 1.5 1.5 0 0 1 377 204.5 L 367 204.5  A 1.5 1.5 0 0 1 365.5 203 L 365.5 193  Z " stroke-width="1" stroke="#797979" fill="none" />
  <path d="M 368.5 198.5  L 371.5 201.5  " stroke-width="3" stroke="#797979" fill="none" />
  <path d="M 371.5 201.5  L 376.5 194.5  " stroke-width="3" stroke="#797979" fill="none" />
</svg>