<?xml version="1.0" encoding="utf-8"?>
<svg version="1.1" xmlns:xlink="http://www.w3.org/1999/xlink" width="14px" height="14px" viewBox="363 297  14 14" xmlns="http://www.w3.org/2000/svg">
  <path d="M 363.5 299  A 1.5 1.5 0 0 1 365 297.5 L 375 297.5  A 1.5 1.5 0 0 1 376.5 299 L 376.5 309  A 1.5 1.5 0 0 1 375 310.5 L 365 310.5  A 1.5 1.5 0 0 1 363.5 309 L 363.5 299  Z " fill-rule="nonzero" fill="#ffffff" stroke="none" />
  <path d="M 363.5 299  A 1.5 1.5 0 0 1 365 297.5 L 375 297.5  A 1.5 1.5 0 0 1 376.5 299 L 376.5 309  A 1.5 1.5 0 0 1 375 310.5 L 365 310.5  A 1.5 1.5 0 0 1 363.5 309 L 363.5 299  Z " stroke-width="1" stroke="#797979" fill="none" />
</svg>