<?xml version="1.0" encoding="utf-8"?>
<svg version="1.1" xmlns:xlink="http://www.w3.org/1999/xlink" width="30px" height="30px" xmlns="http://www.w3.org/2000/svg">
  <g transform="matrix(1 0 0 1 -40 0 )">
    <path d="M 55 0  C 63.4 0  70 6.6  70 15  C 70 23.4  63.4 30  55 30  C 46.6 30  40 23.4  40 15  C 40 6.6  46.6 0  55 0  Z " fill-rule="nonzero" fill="#ffffff" stroke="none" />
    <path d="M 55 0.5  C 63.12 0.5  69.5 6.88  69.5 15  C 69.5 23.12  63.12 29.5  55 29.5  C 46.88 29.5  40.5 23.12  40.5 15  C 40.5 6.88  46.88 0.5  55 0.5  Z " stroke-width="1" stroke="#169bd5" fill="none" />
  </g>
</svg>